<svg width="24" height="24" viewBox="0 0 24 24" fill="none" xmlns="http://www.w3.org/2000/svg">
<g clip-path="url(#clip0_177_12555)">
<path d="M18.8957 8.43753H18.422L17.7467 6.5652C17.6955 6.42336 17.5557 6.32816 17.3986 6.32816H13.1043V3.47408L17.5432 2.01355C17.7354 1.95031 17.8375 1.7502 17.7713 1.56664L17.2917 0.237079C17.26 0.148907 17.1927 0.0764385 17.105 0.0355635C17.0172 -0.00526465 16.9162 -0.0111709 16.8238 0.0192041L12.1367 1.56139C11.3944 1.80561 10.8957 2.47349 10.8957 3.22334V6.32816H6.60137C6.44432 6.32816 6.30449 6.42336 6.25335 6.5652L5.57796 8.43753H5.10429C4.49541 8.43753 4 8.91069 4 9.49222C4 10.0738 4.49541 10.5469 5.10429 10.5469H5.50945L6.97153 23.6856C6.99141 23.8644 7.14935 24 7.33757 24H16.6624C16.8507 24 17.0086 23.8644 17.0285 23.6856L18.4906 10.5469H18.8957C19.5046 10.5469 20 10.0738 20 9.49222C20 8.91064 19.5046 8.43753 18.8957 8.43753ZM11.6319 3.22334C11.6319 2.77344 11.9311 2.37275 12.3765 2.22617L16.7156 0.798454L16.9554 1.46324L12.6163 2.89095C12.4678 2.9398 12.3681 3.0733 12.3681 3.22334V6.32816H11.6319V3.22334ZM16.3314 23.2969H7.66861L6.24977 10.5469H17.7502L16.3314 23.2969ZM18.8957 9.84378H5.10429C4.9013 9.84378 4.7362 9.68609 4.7362 9.49222C4.7362 9.29834 4.9013 9.14066 5.10429 9.14066H5.84049C5.99755 9.14066 6.13737 9.04545 6.18852 8.90361L6.86385 7.03128H17.1361L17.6433 8.43753H5.39779C5.19445 8.43753 5.02969 8.59494 5.02969 8.78909C5.02969 8.98325 5.19445 9.14066 5.39779 9.14066H18.1509C18.1566 9.1408 18.1624 9.1408 18.168 9.14066H18.8957C19.0987 9.14066 19.2638 9.29834 19.2638 9.49222C19.2638 9.68609 19.0987 9.84378 18.8957 9.84378Z" fill="#FF7010"/>
</g>
<defs>
<clipPath id="clip0_177_12555">
<rect width="24" height="24" fill="white"/>
</clipPath>
</defs>
</svg>
