<svg width="24" height="24" viewBox="0 0 24 24" fill="none" xmlns="http://www.w3.org/2000/svg">
<mask id="mask0_177_12744" style="mask-type:alpha" maskUnits="userSpaceOnUse" x="0" y="0" width="13" height="24">
<rect width="12.3" height="24" fill="#C4C4C4"/>
</mask>
<g mask="url(#mask0_177_12744)">
<path d="M12 0C5.38305 0 0 5.38328 0 12C0 18.6167 5.38305 24 12 24C18.6167 24 24 18.6167 24 12C24 5.38328 18.6167 0 12 0ZM21.7158 6.04429L20.2434 6.89435C20.1514 6.79822 20.0575 6.70415 19.9641 6.61191C19.7755 6.42606 19.5975 6.25028 19.4466 6.06145C19.2947 5.87103 19.1619 5.65725 19.0214 5.43112C18.7733 5.03172 18.5165 4.61859 18.1317 4.3112C17.7486 4.00542 17.2894 3.84657 16.8454 3.69322C16.5927 3.60579 16.3542 3.52362 16.1334 3.41696C15.9189 3.31328 15.7099 3.18007 15.4888 3.03885C15.0897 2.78457 14.677 2.52158 14.1883 2.41035C13.7194 2.30414 13.2408 2.35976 12.7773 2.41401C12.6132 2.43323 12.4557 2.44468 12.3001 2.45223V0.607679C16.2792 0.711133 19.7572 2.86101 21.7158 6.04429ZM20.3214 7.99275C20.4885 8.33882 20.5329 8.74966 20.5801 9.18545C20.6096 9.4569 20.6398 9.73797 20.7025 10.0131C20.7627 10.2779 20.8554 10.5377 20.9451 10.7892C21.0934 11.2053 21.2337 11.5985 21.2337 12C21.2337 12.4012 21.0937 12.7942 20.9454 13.2106C20.8554 13.4619 20.7627 13.7221 20.7025 13.9869C20.64 14.262 20.6096 14.5431 20.5801 14.8148C20.5329 15.2501 20.4885 15.6614 20.3214 16.0072C20.2653 16.1235 20.1921 16.2316 20.1129 16.3373L12.6001 12L20.1129 7.66248C20.1921 7.76822 20.2653 7.87648 20.3214 7.99275ZM3.67857 16.0072C3.51149 15.6612 3.46709 15.2501 3.41971 14.8145C3.39041 14.5429 3.35997 14.262 3.29749 13.9869C3.23729 13.7221 3.1446 13.4621 3.05487 13.2108C2.90633 12.7944 2.76603 12.4012 2.76603 12C2.76603 11.5985 2.90633 11.2058 3.05465 10.7894C3.14437 10.5381 3.23729 10.2779 3.29726 10.0131C3.35997 9.73797 3.39041 9.45667 3.41971 9.18522C3.46709 8.74966 3.51149 8.33836 3.67857 7.99275C3.73465 7.87648 3.80766 7.76822 3.88709 7.66248L11.3999 12L3.88709 16.3373C3.80766 16.2316 3.73465 16.1233 3.67857 16.0072ZM11.6999 11.4802L4.29243 7.2038C4.34691 7.14887 4.40138 7.09417 4.45769 7.03855C4.65017 6.84835 4.8493 6.65174 5.02211 6.43568C5.19628 6.21755 5.3446 5.9786 5.48834 5.74743C5.71974 5.37481 5.93855 5.02302 6.24273 4.77995C6.54508 4.53871 6.93624 4.40367 7.35074 4.26039C7.60846 4.17136 7.87488 4.07889 8.1271 3.95712C8.37384 3.8381 8.60776 3.6891 8.83389 3.54491C9.20628 3.30756 9.55761 3.08348 9.94442 2.99559C10.0898 2.96241 10.2415 2.94982 10.3981 2.94982C10.6386 2.94982 10.8913 2.97957 11.1529 3.01001C11.3317 3.03084 11.515 3.04869 11.6999 3.06105V11.4802ZM11.6999 12.5196V20.9389C11.515 20.9513 11.3317 20.9689 11.1529 20.99C10.7208 21.0401 10.3127 21.0882 9.94442 21.0044C9.55761 20.9165 9.20582 20.6922 8.83366 20.4551C8.60753 20.3109 8.37384 20.1617 8.1271 20.0429C7.87465 19.9209 7.60846 19.8289 7.35074 19.7398C6.93624 19.5966 6.54485 19.4613 6.2425 19.2198C5.93855 18.977 5.71974 18.6247 5.48811 18.2521C5.3446 18.0209 5.19606 17.782 5.02211 17.5641C4.8493 17.3476 4.64995 17.151 4.45723 16.9608C4.40115 16.9054 4.34691 16.8509 4.29243 16.7962L11.6999 12.5196ZM12.3001 12.5196L19.7073 16.7962C19.6529 16.8511 19.5984 16.9058 19.5423 16.9615C19.3498 17.1514 19.1505 17.348 18.9779 17.5643C18.8037 17.7822 18.6554 18.0214 18.5117 18.2526C18.2803 18.6252 18.0615 18.977 17.7573 19.2198C17.4549 19.4613 17.0635 19.5963 16.6493 19.7396C16.3915 19.8286 16.1251 19.9209 15.8727 20.0429C15.6262 20.1617 15.392 20.3109 15.1659 20.4551C14.7937 20.6922 14.4424 20.9165 14.0556 21.0044C13.6864 21.0882 13.2785 21.0401 12.8471 20.99C12.6683 20.9689 12.4848 20.9513 12.3001 20.9389V12.5196ZM12.3001 11.4802V3.06105C12.4848 3.04869 12.6683 3.03084 12.8471 3.01001C13.279 2.95966 13.6869 2.91159 14.0554 2.99559C14.4424 3.08348 14.794 3.30756 15.1661 3.54491C15.3925 3.6891 15.6262 3.8381 15.8727 3.95712C16.1251 4.07889 16.3915 4.1709 16.6493 4.25993C17.0635 4.40321 17.4549 4.53871 17.7573 4.77995C18.0615 5.02302 18.2803 5.37504 18.5117 5.74766C18.6554 5.97883 18.8039 6.21801 18.9779 6.4359C19.1507 6.65243 19.3498 6.84903 19.5428 7.03923C19.5988 7.09439 19.6531 7.1491 19.7073 7.2038L12.3001 11.4802ZM11.6999 0.607679V2.45223C11.5443 2.44468 11.3866 2.43323 11.2225 2.41401C10.7595 2.35976 10.2804 2.30414 9.81144 2.41035C9.32301 2.52158 8.91056 2.78434 8.5114 3.03885C8.29007 3.17984 8.08133 3.31328 7.86641 3.41696C7.64554 3.52362 7.40705 3.60579 7.15459 3.69322C6.71056 3.84657 6.25143 4.00542 5.86828 4.3112C5.48353 4.61836 5.22673 5.03149 4.97862 5.43112C4.83809 5.65725 4.70511 5.8708 4.55336 6.06123C4.40253 6.24982 4.22468 6.4256 4.03609 6.61168C3.94247 6.70392 3.84886 6.79822 3.75639 6.89435L2.28423 6.04429C4.24277 2.86101 7.72084 0.711133 11.6999 0.607679ZM1.98234 6.56293L3.36386 7.36058C3.28032 7.47754 3.20204 7.59908 3.13796 7.73206C2.92624 8.17105 2.87383 8.65376 2.82325 9.12045C2.79441 9.38687 2.76717 9.63863 2.71224 9.8801C2.66005 10.1101 2.5772 10.342 2.48954 10.5878C2.33047 11.0337 2.16613 11.4949 2.16613 12C2.16613 12.5051 2.33047 12.9666 2.48977 13.4124C2.57743 13.6578 2.66005 13.8901 2.71247 14.1199C2.76717 14.3609 2.79441 14.6127 2.82325 14.8793C2.87383 15.346 2.92624 15.8287 3.13796 16.2679C3.20204 16.4009 3.28032 16.5225 3.36386 16.6394L1.98234 17.4371C1.10115 15.82 0.599897 13.9675 0.599897 12C0.599897 10.0325 1.10115 8.17998 1.98234 6.56293ZM2.28423 17.9557L3.75639 17.1056C3.84863 17.2018 3.94225 17.2956 4.03586 17.3879C4.22423 17.5739 4.40253 17.7497 4.55313 17.9383C4.70511 18.1287 4.83786 18.3427 4.97862 18.5689C5.22673 18.9683 5.4833 19.3812 5.86805 19.6886C6.25143 19.9944 6.71056 20.1532 7.15459 20.3068C7.40705 20.394 7.64554 20.4764 7.86641 20.583C8.0811 20.6867 8.29007 20.8197 8.51117 20.9609C8.91034 21.2152 9.32301 21.4784 9.81167 21.5897C10.006 21.6336 10.2019 21.6496 10.3978 21.6496C10.6748 21.6496 10.9513 21.6176 11.2225 21.5858C11.3866 21.5665 11.5443 21.5553 11.6999 21.5478V23.3923C7.72084 23.2886 4.24277 21.139 2.28423 17.9557ZM12.3001 23.3923V21.5478C12.4557 21.5553 12.6132 21.5665 12.7773 21.5858C13.2405 21.64 13.7191 21.6956 14.1883 21.5897C14.677 21.4784 15.0894 21.2154 15.4884 20.9609C15.7097 20.8199 15.9187 20.6867 16.1334 20.583C16.3542 20.4764 16.5927 20.394 16.8454 20.3068C17.2894 20.1532 17.7483 19.9944 18.1317 19.6886C18.5165 19.3816 18.773 18.9685 19.0214 18.5689C19.1619 18.3427 19.2947 18.1292 19.4466 17.9388C19.5972 17.7499 19.7753 17.5742 19.9639 17.3883C20.0573 17.2958 20.1511 17.2018 20.2434 17.1056L21.7158 17.9557C19.7572 21.139 16.2792 23.2886 12.3001 23.3923ZM22.0177 17.4371L20.6359 16.6394C20.7197 16.5225 20.7977 16.4009 20.862 16.2679C21.0738 15.8287 21.1259 15.3462 21.1765 14.8796C21.2054 14.6129 21.2326 14.3614 21.2875 14.1199C21.3399 13.8899 21.4226 13.6578 21.5102 13.412C21.6693 12.9661 21.8339 12.5051 21.8339 12C21.8339 11.4949 21.6693 11.0334 21.5102 10.5876C21.4226 10.342 21.3397 10.1097 21.2875 9.8801C21.2326 9.63886 21.2054 9.38732 21.1765 9.12068C21.1259 8.65399 21.0738 8.17105 20.862 7.73206C20.7977 7.59908 20.7197 7.47754 20.6359 7.36058L22.0177 6.56293C22.8986 8.17998 23.3999 10.0325 23.3999 12C23.3999 13.9675 22.8986 15.82 22.0177 17.4371Z" fill="#FF7010"/>
<path d="M10.7959 5.78268C10.8506 5.60759 10.8792 5.26541 10.4583 4.93857C9.99774 4.58083 9.42531 4.42313 8.84693 4.49706C8.26855 4.56962 7.75311 4.86327 7.39559 5.32378C7.03785 5.78429 6.88084 6.35649 6.95363 6.9351C7.02664 7.51348 7.32006 8.02915 7.78057 8.38689C7.97604 8.53864 8.18226 8.61509 8.37795 8.61509C8.53565 8.61509 8.68625 8.56542 8.81901 8.46494C8.99845 8.32944 9.11426 8.11864 9.15729 7.87969L9.32987 7.99276C9.53678 8.12849 9.78351 8.17609 10.0261 8.12551C10.2683 8.07516 10.4763 7.93348 10.6121 7.7268L10.6674 7.64234C10.8032 7.43543 10.8501 7.18847 10.8 6.94632C10.7496 6.70393 10.6082 6.49588 10.4013 6.36038L10.3253 6.31048C10.5455 6.18597 10.7256 6.00722 10.7959 5.78268ZM9.46308 6.46223L10.0721 6.86186C10.1449 6.90969 10.1946 6.98294 10.2124 7.06808C10.2301 7.15345 10.2136 7.24043 10.1657 7.31298L10.1104 7.39744C10.0625 7.47045 9.98927 7.52012 9.90413 7.53774C9.81876 7.55582 9.73201 7.53935 9.659 7.49128L8.96549 7.03627C8.85585 6.96348 8.71235 6.97149 8.61072 7.05503C8.50933 7.13835 8.47385 7.27796 8.52283 7.3995C8.6256 7.65356 8.56861 7.90189 8.45692 7.98658C8.36811 8.05456 8.24017 7.9836 8.14861 7.91288C7.81468 7.65356 7.60182 7.27957 7.54894 6.86003C7.4963 6.44072 7.61006 6.02576 7.86915 5.69182C8.1287 5.35788 8.50246 5.14502 8.922 5.09215C8.98906 5.08391 9.05613 5.07956 9.12273 5.07956C9.47223 5.07956 9.80983 5.19469 10.0902 5.41258C10.1266 5.44074 10.2436 5.53801 10.2232 5.6037C10.1836 5.73027 9.90184 5.89598 9.61139 5.912C9.48207 5.9191 9.37198 6.00859 9.33811 6.13356C9.30446 6.25876 9.35482 6.39105 9.46308 6.46223Z" fill="#FF7010"/>
<path d="M7.60524 11.0648L7.55992 10.9755C7.33058 10.5196 6.77302 10.3358 6.31641 10.5645L6.23561 10.6054C6.23767 10.3525 6.1729 10.1074 6.0136 9.93434C5.88954 9.79976 5.60756 9.60384 5.11387 9.8048C4.57394 10.0245 4.15211 10.4415 3.92575 10.979C3.69938 11.5164 3.69595 12.1096 3.9159 12.6496C4.2606 13.4953 5.07862 14.0084 5.94013 14.0084C6.21387 14.0084 6.49219 13.9567 6.76089 13.8471C7.17471 13.6786 7.39421 13.3573 7.3482 12.9876C7.32028 12.764 7.19577 12.5582 7.01015 12.4017L7.19462 12.3088C7.41549 12.1977 7.57983 12.0071 7.65765 11.772C7.73501 11.537 7.71647 11.2863 7.60524 11.0648ZM7.08774 11.5839C7.0605 11.6665 7.00259 11.7336 6.92477 11.7729L6.18388 12.1463C6.0667 12.2051 6.00147 12.3332 6.02298 12.4628C6.0445 12.5923 6.14749 12.6928 6.2775 12.7109C6.54872 12.7491 6.73549 12.9226 6.75265 13.0618C6.76662 13.1728 6.64188 13.2481 6.53453 13.2916C5.72612 13.6209 4.80076 13.2314 4.47163 12.4232C4.1425 11.615 4.53205 10.6894 5.34023 10.3603C5.36976 10.3482 5.44712 10.3191 5.50754 10.3191C5.53432 10.3191 5.5579 10.325 5.57231 10.3406C5.66227 10.4383 5.66501 10.7652 5.5334 11.0243C5.47481 11.1399 5.49701 11.2802 5.58857 11.3717C5.67966 11.4633 5.81974 11.4855 5.93601 11.428L6.58626 11.1005C6.7467 11.019 6.94308 11.0847 7.02411 11.2456L7.06943 11.3349C7.10856 11.4129 7.1152 11.5013 7.08774 11.5839Z" fill="#FF7010"/>
<path d="M8.52056 19.3253C8.6215 19.3393 8.72243 19.3462 8.82268 19.3462C9.29555 19.3462 9.75331 19.1933 10.1367 18.9026C10.6011 18.5503 10.9009 18.0383 10.9803 17.4609C11.0412 17.0182 10.8725 16.6671 10.5292 16.5222C10.3221 16.4343 10.0815 16.4394 9.85288 16.522L9.86478 16.316C9.87897 16.069 9.79612 15.8315 9.63155 15.6465C9.46676 15.4621 9.24016 15.3526 8.99343 15.3387L8.89226 15.3327C8.38896 15.3005 7.94447 15.6946 7.91517 16.2043L7.90991 16.295C7.69201 16.1665 7.44688 16.0993 7.21754 16.1517C7.03879 16.1917 6.7282 16.3375 6.65564 16.8656C6.57622 17.4432 6.72636 18.0173 7.07861 18.4819C7.43086 18.9465 7.94287 19.2461 8.52056 19.3253ZM7.25004 16.9475C7.25645 16.9019 7.28209 16.7518 7.34892 16.7369C7.35899 16.7346 7.37021 16.7335 7.38211 16.7335C7.52218 16.7335 7.77533 16.8878 7.92181 17.1125C7.99253 17.221 8.12506 17.2725 8.25025 17.2382C8.37545 17.2052 8.46517 17.0949 8.47273 16.9656L8.51415 16.2386C8.52445 16.0592 8.68192 15.9255 8.85793 15.9315L8.9591 15.9374C9.04607 15.9425 9.12572 15.9812 9.18363 16.0459C9.24154 16.1109 9.2706 16.1947 9.2658 16.2817L9.21842 17.1095C9.21087 17.2405 9.28937 17.3613 9.41228 17.4073C9.53428 17.4538 9.67344 17.4149 9.75446 17.3112C9.92292 17.0953 10.1667 17.0214 10.2958 17.0747C10.399 17.1185 10.4017 17.2643 10.3859 17.3789C10.2669 18.2436 9.46607 18.849 8.60227 18.7312C8.18342 18.6735 7.81218 18.4563 7.55674 18.1194C7.30131 17.7824 7.19237 17.3663 7.25004 16.9475Z" fill="#FF7010"/>
</g>
<path d="M22.938 19.696C22.4055 18.672 22.3475 17.469 22.7805 16.3955C23.251 15.227 23.5 13.8795 23.5 12.5C23.5 10.1415 22.842 8.6935 22.205 7.293C21.6355 6.04 21.101 4.8425 21.017 2.9965C21.285 2.987 21.5 2.77 21.5 2.5C21.5 2.224 21.2765 2 21 2V0.5C21 0.224 20.7765 0 20.5 0H16.5C16.2235 0 16 0.224 16 0.5V2C15.7235 2 15.5 2.224 15.5 2.5C15.5 2.77 15.715 2.987 15.983 2.9965C15.899 4.8425 15.3645 6.0405 14.795 7.293C14.1585 8.6935 13.5 10.1415 13.5 12.5C13.5 13.8795 13.749 15.227 14.2195 16.396C14.652 17.47 14.5945 18.673 14.062 19.6965C13.6945 20.4025 13.5 21.199 13.5 22C13.5 22.562 13.5975 23.1225 13.79 23.6665C13.8605 23.8665 14.0495 24 14.261 24H22.738C22.95 24 23.1385 23.8665 23.209 23.667C23.4025 23.1235 23.5 22.5625 23.5 22C23.5 21.199 23.306 20.4025 22.938 19.696C22.938 19.6965 22.938 19.6965 22.938 19.696ZM14.5 12.5C14.5 11.5145 14.6275 10.7145 14.8215 10H22.1785C22.3725 10.7145 22.5 11.5145 22.5 12.5C22.5 13.366 22.386 14.211 22.18 15H14.82C14.614 14.211 14.5 13.366 14.5 12.5ZM20.103 4H16.8975C16.9405 3.6835 16.9755 3.356 16.99 3H20.0105C20.025 3.356 20.06 3.6835 20.103 4ZM17 1H20V2H17V1ZM16.7135 5H20.287C20.538 6.036 20.9195 6.881 21.295 7.707C21.4895 8.135 21.6785 8.5585 21.849 9H15.151C15.3215 8.558 15.5105 8.135 15.705 7.707C16.0805 6.881 16.4625 6.036 16.7135 5ZM22.3695 23H14.6305C14.544 22.6695 14.5 22.3345 14.5 22C14.5 21.35 14.651 20.73 14.9485 20.158C15.6165 18.875 15.6885 17.3675 15.147 16.0225C15.144 16.0155 15.1425 16.0075 15.1395 16.0005H21.8595C21.8565 16.0075 21.855 16.0155 21.852 16.0225C21.31 17.367 21.3825 18.875 22.0505 20.1585C22.349 20.7305 22.5 21.35 22.5 22C22.5 22.335 22.456 22.67 22.3695 23Z" fill="#FF7010"/>
<path d="M22.938 19.696C22.4055 18.672 22.3475 17.469 22.7805 16.3955C23.251 15.227 23.5 13.8795 23.5 12.5C23.5 10.1415 22.842 8.6935 22.205 7.293C21.6355 6.04 21.101 4.8425 21.017 2.9965C21.285 2.987 21.5 2.77 21.5 2.5C21.5 2.224 21.2765 2 21 2V0.5C21 0.224 20.7765 0 20.5 0H16.5C16.2235 0 16 0.224 16 0.5V2C15.7235 2 15.5 2.224 15.5 2.5C15.5 2.77 15.715 2.987 15.983 2.9965C15.899 4.8425 15.3645 6.0405 14.795 7.293C14.1585 8.6935 13.5 10.1415 13.5 12.5C13.5 13.8795 13.749 15.227 14.2195 16.396C14.652 17.47 14.5945 18.673 14.062 19.6965C13.6945 20.4025 13.5 21.199 13.5 22C13.5 22.562 13.5975 23.1225 13.79 23.6665C13.8605 23.8665 14.0495 24 14.261 24H22.738C22.95 24 23.1385 23.8665 23.209 23.667C23.4025 23.1235 23.5 22.5625 23.5 22C23.5 21.199 23.306 20.4025 22.938 19.696ZM22.938 19.696C22.938 19.6965 22.938 19.6965 22.938 19.696ZM14.5 12.5C14.5 11.5145 14.6275 10.7145 14.8215 10H22.1785C22.3725 10.7145 22.5 11.5145 22.5 12.5C22.5 13.366 22.386 14.211 22.18 15H14.82C14.614 14.211 14.5 13.366 14.5 12.5V12.5ZM20.103 4H16.8975C16.9405 3.6835 16.9755 3.356 16.99 3H20.0105C20.025 3.356 20.06 3.6835 20.103 4V4ZM17 1H20V2H17V1ZM16.7135 5H20.287C20.538 6.036 20.9195 6.881 21.295 7.707C21.4895 8.135 21.6785 8.5585 21.849 9H15.151C15.3215 8.558 15.5105 8.135 15.705 7.707C16.0805 6.881 16.4625 6.036 16.7135 5ZM22.3695 23H14.6305C14.544 22.6695 14.5 22.3345 14.5 22C14.5 21.35 14.651 20.73 14.9485 20.158C15.6165 18.875 15.6885 17.3675 15.147 16.0225C15.144 16.0155 15.1425 16.0075 15.1395 16.0005H21.8595C21.8565 16.0075 21.855 16.0155 21.852 16.0225C21.31 17.367 21.3825 18.875 22.0505 20.1585C22.349 20.7305 22.5 21.35 22.5 22C22.5 22.335 22.456 22.67 22.3695 23V23Z" stroke="white" stroke-width="0.3"/>
</svg>
