<svg width="24" height="24" viewBox="0 0 24 24" fill="none" xmlns="http://www.w3.org/2000/svg">
<g clip-path="url(#clip0_177_12568)">
<path d="M19.5543 9.07085C19.7784 8.63151 19.8817 8.13305 19.8485 7.62622C19.7621 6.30637 18.7434 5.23804 17.4788 5.14117C17.2311 5.12222 16.9854 5.13978 16.746 5.19353C15.9897 4.48651 14.5306 3.98371 13.3991 3.67925C12.8952 3.54367 12.5233 3.14514 12.4045 2.61323C12.2873 2.08857 12.4489 1.56734 12.8368 1.21902C12.8688 1.19034 12.8839 1.17976 12.8835 1.17976C12.8834 1.17976 12.8834 1.17976 12.8833 1.17982C12.9992 1.11393 13.0713 0.987319 13.0712 0.849643C13.0712 0.71186 12.9989 0.585137 12.8829 0.519414C12.1174 0.0857664 11.2185 -0.0847178 10.3516 0.0396417C9.45511 0.168136 8.64218 0.589809 8.00067 1.25907C7.02564 2.27656 6.61076 3.74696 6.87193 5.13876C6.723 5.12925 6.57258 5.13323 6.42139 5.15084C5.19054 5.29394 4.23584 6.33499 4.15134 7.62622C4.11815 8.13305 4.22133 8.63156 4.44549 9.0709C3.20693 9.65065 2.4115 10.9975 2.50789 12.4462C2.56346 13.2813 2.91407 14.0663 3.49501 14.6566C3.56458 14.7273 3.63689 14.7942 3.71135 14.8578L4.79682 22.8634C4.81766 23.0172 4.92701 23.1418 5.07208 23.1769C7.33822 23.7256 9.66909 24 12 24C14.3309 24 16.6618 23.7257 18.9279 23.1769C19.073 23.1418 19.1823 23.0172 19.2032 22.8634L20.2887 14.8577C20.3632 14.7942 20.4355 14.7272 20.505 14.6566C21.086 14.0663 21.4366 13.2813 21.4921 12.4461C21.5884 10.9975 20.7929 9.65065 19.5543 9.07085ZM4.50699 15.3598C4.86356 15.5182 5.24612 15.6106 5.63851 15.6287C5.68107 15.6306 5.72363 15.6316 5.76608 15.6319L6.44115 22.7082C6.11813 22.6448 5.79603 22.5764 5.47533 22.5017L4.50699 15.3598ZM16.4815 15.1176C16.8008 15.3239 17.1516 15.4708 17.5172 15.5535L16.8224 22.8431C16.4849 22.9003 16.1463 22.9514 15.8069 22.9964L16.2977 15.2868C16.3598 15.2316 16.4212 15.1755 16.4815 15.1176ZM15.0794 23.0836C14.746 23.1192 14.4121 23.1497 14.0777 23.1737L14.2895 16.5148C14.7256 16.3478 15.1439 16.1324 15.5385 15.8717L15.0794 23.0836ZM13.3555 23.2161C13.0239 23.2316 12.6921 23.2418 12.3601 23.2458V16.9261C12.7687 16.9035 13.1704 16.8425 13.5613 16.7445L13.3555 23.2161ZM11.6397 23.2459C11.3078 23.2418 10.9759 23.2317 10.6443 23.2162L10.4384 16.7445C10.8294 16.8425 11.2311 16.9035 11.6397 16.9262V23.2459ZM9.71026 16.5147L9.92207 23.1737C9.58768 23.1496 9.25375 23.1192 8.92038 23.0835L8.46135 15.8716C8.8559 16.1324 9.27418 16.3477 9.71026 16.5147ZM7.7021 15.2869L8.19283 22.9965C7.8537 22.9514 7.51534 22.9004 7.17802 22.8433L6.48263 15.5535C6.84831 15.4708 7.19901 15.3239 7.51828 15.1177C7.57864 15.1755 7.64009 15.2317 7.7021 15.2869ZM18.5245 22.5017C18.204 22.5764 17.8822 22.6447 17.5593 22.7082L18.2338 15.6319C18.2763 15.6317 18.3188 15.6306 18.3614 15.6287C18.7537 15.6106 19.1363 15.5182 19.4929 15.3599L18.5245 22.5017ZM20.7732 12.394C20.7299 13.0446 20.4561 13.6568 20.0023 14.1179C19.5485 14.579 18.9544 14.8488 18.3295 14.8777C17.7216 14.9058 17.1441 14.7183 16.6614 14.3355C16.5179 14.2217 16.3156 14.2362 16.1883 14.3695C15.0707 15.5401 13.5833 16.1847 11.9999 16.1847C10.4166 16.1847 8.92913 15.5401 7.8115 14.3695C7.74162 14.2963 7.64919 14.2589 7.5562 14.2589C7.47984 14.2589 7.40311 14.2841 7.33837 14.3355C6.85572 14.7183 6.27858 14.9057 5.67037 14.8776C5.04542 14.8488 4.45136 14.579 3.99753 14.1179C3.54369 13.6567 3.26982 13.0445 3.22659 12.394C3.14271 11.1337 3.92198 9.97235 5.08098 9.62698C5.1624 9.60271 5.23753 9.55556 5.28714 9.48393C5.3863 9.34072 5.37673 9.15391 5.27659 9.02478C4.98238 8.64558 4.83809 8.16704 4.8701 7.67728C4.92989 6.76397 5.6311 5.99896 6.5012 5.8978C6.50712 5.8971 6.51309 5.89646 6.51901 5.89581C6.85453 5.86 7.19073 5.95091 7.47603 6.13863C7.82128 6.36581 8.42857 6.71817 9.26836 7.02745C10.1325 7.34571 11.3713 7.65951 12.8972 7.65951C13.5388 7.65951 14.2315 7.60393 14.968 7.46996C15.1635 7.43441 15.3083 7.24707 15.2794 7.04222C15.2498 6.83184 15.06 6.68971 14.8606 6.72644C12.5335 7.15332 10.6821 6.74641 9.53869 6.32978C8.53983 5.96589 7.89121 5.53149 7.67122 5.37185C7.29303 4.11762 7.61626 2.72341 8.51019 1.79061C9.44775 0.812432 10.8552 0.503896 12.0781 0.964123C11.6959 1.47294 11.5561 2.12696 11.7029 2.78387C11.8811 3.58142 12.4622 4.20343 13.2192 4.4071C14.7764 4.82609 15.9228 5.3544 16.3673 5.85764C16.4634 5.96642 16.609 6.01325 16.7445 5.96991C16.9644 5.89963 17.1938 5.87305 17.4261 5.89077C18.3353 5.96046 19.0318 6.73175 19.1298 7.67728C19.2904 9.22785 16.138 12.5628 9.54929 10.9723C9.35193 10.9247 9.1551 11.0561 9.11485 11.2646C9.076 11.466 9.20831 11.6618 9.40005 11.7079C10.6768 12.0151 11.8099 12.1375 12.8056 12.1375C14.6594 12.1375 16.0362 11.7129 16.9716 11.2658C18.1355 10.7095 18.8242 10.0344 19.1209 9.69683C20.1672 10.1105 20.8522 11.2085 20.7732 12.394Z" fill="#FF7010"/>
</g>
<defs>
<clipPath id="clip0_177_12568">
<rect width="24" height="24" fill="white"/>
</clipPath>
</defs>
</svg>
