<svg width="24" height="24" viewBox="0 0 24 24" fill="none" xmlns="http://www.w3.org/2000/svg">
<path d="M12.5728 23.9999C11.6442 24.0033 10.7223 23.8465 9.84957 23.5367C6.72079 22.4158 4.63365 20.6507 3.64674 18.2907C2.02692 14.4163 3.95022 10.3786 4.03267 10.2089C4.06332 10.1457 4.113 10.0932 4.17504 10.0584C4.23708 10.0237 4.30852 10.0082 4.37978 10.0142C4.45105 10.0202 4.51873 10.0474 4.57376 10.092C4.62879 10.1367 4.66854 10.1967 4.68768 10.2641C4.96976 11.0477 5.46749 11.74 6.12612 12.2651C6.92919 8.32616 10.4449 5.94251 10.6011 5.83793C12.8696 4.06322 11.0168 0.53712 10.9979 0.501804C10.9605 0.431932 10.9489 0.351595 10.965 0.274331C10.9811 0.197067 11.024 0.127598 11.0864 0.0776288C11.1488 0.0276594 11.227 0.000243855 11.3077 1.61908e-06C11.3883 -0.000240617 11.4667 0.0267052 11.5294 0.0762989C17.7768 5.03081 17.4175 10.021 16.9134 12.0714C17.3826 11.7123 17.7472 11.2391 17.9706 10.6991C18.1939 10.1592 18.2683 9.57131 18.1862 8.99442C18.1752 8.91772 18.1911 8.83965 18.2313 8.77291C18.2715 8.70616 18.3336 8.65469 18.4076 8.62686C18.4815 8.59903 18.5629 8.59649 18.6386 8.61965C18.7142 8.64281 18.7796 8.69031 18.824 8.75441C19.502 9.78709 20.0525 10.8946 20.4638 12.0539C21.0064 13.5722 21.14 15.2015 20.8517 16.7849C20.5634 18.3683 19.8629 19.8525 18.8177 21.0947L18.7426 21.1842C17.9911 22.0701 17.048 22.7821 15.9812 23.269C14.9143 23.7559 13.7502 24.0055 12.5728 23.9999ZM10.0909 22.8928C10.8864 23.1749 11.7266 23.3175 12.5728 23.3142C13.6465 23.3194 14.7081 23.092 15.6811 22.6483C16.6542 22.2046 17.5145 21.5556 18.2002 20.7481L18.2704 20.6624C19.2399 19.511 19.8898 18.1352 20.1577 16.6673C20.4256 15.1994 20.3024 13.6888 19.8001 12.2809C19.5394 11.5563 19.2242 10.8516 18.857 10.1725C18.4711 12.2356 16.4513 13.195 16.4267 13.2063C16.3614 13.2365 16.288 13.2463 16.2168 13.2342C16.1455 13.2221 16.0798 13.1889 16.0287 13.1389C15.9775 13.0889 15.9434 13.0248 15.931 12.9551C15.9186 12.8855 15.9285 12.8138 15.9594 12.7499C16.0703 12.5174 18.4855 7.22965 12.1283 1.48962C12.5338 2.86351 12.7763 5.0123 11.0158 6.38859C10.9572 6.42905 7.23126 8.96219 6.72255 12.9375C6.71493 12.9956 6.69218 13.0509 6.65648 13.098C6.62079 13.1451 6.57333 13.1824 6.51864 13.2065C6.46396 13.2306 6.40387 13.2406 6.34412 13.2355C6.28437 13.2304 6.22695 13.2104 6.17734 13.1775C5.44403 12.6693 4.82633 12.0182 4.36316 11.2653C3.9025 12.5822 3.191 15.3938 4.2979 18.0339C5.20798 20.206 7.15688 21.8398 10.0906 22.8911L10.0909 22.8928Z" fill="#E23535"/>
<path d="M11.0779 23.86C10.9952 23.86 10.9152 23.8315 10.8519 23.7795C6.38119 20.0963 9.53102 15.3863 9.5633 15.3393C9.60411 15.2797 9.66302 15.2341 9.73172 15.209C9.80043 15.1838 9.87547 15.1803 9.9463 15.199C10.0171 15.2177 10.0802 15.2577 10.1266 15.3132C10.173 15.3687 10.2004 15.4371 10.205 15.5087C10.2138 16.0348 10.407 16.542 10.7523 16.9457C10.5703 15.6524 10.7637 14.3351 11.3105 13.144C11.8573 11.953 12.7355 10.9359 13.8449 10.2089C13.9105 10.1716 13.9867 10.1561 14.0621 10.1647C14.1375 10.1733 14.2079 10.2056 14.263 10.2566C14.318 10.3077 14.3546 10.3748 14.3673 10.4479C14.3799 10.5211 14.368 10.5962 14.3333 10.6622C14.1397 11.0193 14.0424 11.4187 14.0505 11.8228C14.0687 12.293 14.2213 12.7487 14.4912 13.1384L14.6315 13.3479C15.0964 14.0224 15.6001 14.6705 16.1401 15.2892C16.5604 15.7862 16.8967 16.3456 17.1361 16.9463C18.8946 20.4892 15.8731 23.2819 15.8437 23.3101C15.7751 23.37 15.6853 23.4013 15.5934 23.3971C15.5015 23.393 15.415 23.3537 15.3524 23.2878C15.2899 23.2219 15.2563 23.1346 15.2589 23.0448C15.2616 22.9549 15.3002 22.8697 15.3665 22.8074C15.4763 22.7073 18.0417 20.3182 16.4973 17.2306C16.4912 17.2184 16.486 17.206 16.4815 17.1932C16.2689 16.6621 15.9714 16.1674 15.6002 15.7274C15.0428 15.0888 14.5231 14.4197 14.0435 13.7233L13.9032 13.5138C13.5614 13.0167 13.3691 12.4358 13.3481 11.8372C13.3454 11.7036 13.3514 11.5699 13.3664 11.4371C12.356 12.3707 10.8754 14.3583 11.5736 17.6088C11.5862 17.6671 11.583 17.7275 11.5643 17.7843C11.5457 17.841 11.5123 17.892 11.4673 17.9322C11.4224 17.9725 11.3675 18.0006 11.3081 18.0138C11.2486 18.027 11.1867 18.0248 11.1284 18.0075C10.7936 17.8823 10.4918 17.6852 10.2452 17.4308C9.99871 17.1764 9.81375 16.8712 9.70398 16.5376C9.08159 17.9228 8.33571 20.8102 11.3035 23.2559C11.3585 23.3012 11.398 23.362 11.4165 23.4299C11.435 23.4979 11.4317 23.5698 11.407 23.6359C11.3823 23.7019 11.3374 23.759 11.2784 23.7993C11.2194 23.8396 11.1491 23.8611 11.0772 23.8611L11.0779 23.86Z" fill="#E23535"/>
</svg>
