<svg width="24" height="24" viewBox="0 0 24 24" fill="none" xmlns="http://www.w3.org/2000/svg">
<path d="M12.8289 4.88496V2.76106L17.2881 1.70124C17.7205 1.59848 17.9816 1.15788 17.8642 0.729266C17.7527 0.322055 17.3393 0.0757875 16.9281 0.171614L11.9441 1.33312C11.4914 1.43862 11.1711 1.84218 11.1711 2.30702V4.88496H6C5.44772 4.88496 5 5.33267 5 5.88496V8.33628H19V5.88496C19 5.33267 18.5523 4.88496 18 4.88496H12.8289Z" fill="#FF7010"/>
<path d="M5.06448 9.66371L6.97106 22.6195C7.08159 23.4159 7.80001 24 8.60133 24H15.3158C16.1447 24 16.8355 23.4159 16.9461 22.6195L18.8526 9.66371H5.06448Z" fill="#FF7010"/>
</svg>
