<svg width="24" height="24" viewBox="0 0 24 24" fill="none" xmlns="http://www.w3.org/2000/svg">
<path d="M23.9855 7.81606C23.9615 5.98344 22.4681 4.5 20.6358 4.5C18.9988 4.5 17.6332 5.68435 17.3434 7.24376C16.7679 7.49922 15.7683 7.90775 15.1727 8.0072C14.4545 8.12698 13.5866 8.16303 12.5931 8.11404C10.6954 8.02051 8.80078 7.40051 7.11401 6.32061C4.99145 4.96195 3.18365 4.644 1.25226 5.28969C0.503174 5.54016 0 6.24722 0 7.04948C0 7.30938 0.140808 7.54858 0.367126 7.67298C0.625854 7.81495 0.867736 7.93769 1.10175 8.05618C2.36938 8.69854 3.06775 9.05235 3.53045 11.0022C3.87616 12.4581 4.48096 13.6785 5.32837 14.6291C5.68799 15.0327 6.09228 15.3887 6.53741 15.6952H16.1603C17.614 14.5999 18.5039 12.9385 18.7485 10.8438C18.8954 9.5862 18.772 8.48985 18.6859 7.94952C18.6896 7.9205 18.6919 7.89111 18.6919 7.86098C18.6919 6.7905 19.5639 5.91966 20.6358 5.91966C21.7075 5.91966 22.5796 6.7905 22.5796 7.86098C22.5796 7.89481 22.582 7.92863 22.5868 7.96209C22.5877 7.96912 22.6653 8.67303 22.2317 9.17823C21.8763 9.5923 21.2485 9.80229 20.3657 9.80229C19.9773 9.80229 19.6626 10.1201 19.6626 10.5121C19.6626 10.904 19.9773 11.222 20.3657 11.222C21.6747 11.222 22.6602 10.8471 23.2945 10.1077C24.0725 9.20116 24.0154 8.09907 23.9855 7.81606Z" fill="#FF7010"/>
<path d="M6.54126 17.1147C6.50208 17.2675 6.48138 17.4278 6.48138 17.5927V18.7902C6.48138 19.1821 6.79614 19.5 7.18433 19.5H15.5581C15.9463 19.5 16.2612 19.1821 16.2612 18.7902V17.5927C16.2612 17.4278 16.2404 17.2675 16.2012 17.1147H6.54126Z" fill="#FF7010"/>
</svg>
