<svg width="24" height="24" viewBox="0 0 24 24" fill="none" xmlns="http://www.w3.org/2000/svg">
<path d="M6.79871 0C6.57711 0 6.41171 0.178783 6.39871 0.400006V6.4711C6.80088 6.61624 7.11279 6.97066 7.18308 7.40939C7.18588 7.42466 7.3455 8.32001 7.99871 9.26252V0.400006C7.99871 0.178405 7.82031 0 7.59871 0H6.79871ZM16.3987 0C16.1771 0 16.0117 0.178783 15.9987 0.400006V9.2586C16.6559 8.30847 16.8167 7.40154 16.8167 7.40154C16.8894 6.96691 17.1994 6.61559 17.5987 6.4711V0.400006C17.5987 0.178405 17.4203 0 17.1987 0H16.3987ZM9.19871 1.60002C8.97711 1.60002 8.79871 1.7784 8.79871 1.99998V10.1633C9.20828 10.5191 9.7188 10.8211 10.3987 11.0047V1.99998C10.3987 1.7784 10.2203 1.60002 9.99871 1.60002H9.19871ZM13.9987 1.60002C13.7771 1.60002 13.5987 1.7784 13.5987 1.99998V11.0047C14.2788 10.8208 14.7893 10.518 15.1987 10.1617V1.99998C15.1987 1.7784 15.0203 1.60002 14.7987 1.60002H13.9987ZM4.39871 3.2C4.17711 3.2 3.99871 3.37841 3.99871 3.60001V6.39922H5.59871V3.60001C5.59871 3.37841 5.42031 3.2 5.19871 3.2H4.39871ZM11.5987 3.2C11.3771 3.2 11.1987 3.37841 11.1987 3.60001V11.1562C11.4469 11.1844 11.7126 11.1999 11.9979 11.1999C12.2841 11.1999 12.5499 11.1845 12.7987 11.1562V3.60001C12.7987 3.37841 12.6203 3.2 12.3987 3.2H11.5987ZM18.7987 3.2C18.5771 3.2 18.3987 3.37841 18.3987 3.60001V6.39922H19.9987V3.60001C19.9987 3.37841 19.8203 3.2 19.5987 3.2H18.7987ZM2.39871 7.19923C2.15787 7.20008 1.97237 7.41194 2.00339 7.65077L4.00262 22.8484C4.07337 23.4438 4.53817 24 5.19793 24H18.7987C19.4568 24 19.9213 23.4451 19.994 22.8516L21.9964 7.65077C22.0275 7.4107 21.84 7.19819 21.5979 7.19923H17.9987C17.803 7.20023 17.6367 7.34269 17.6057 7.53594C17.6057 7.53594 17.4166 8.64644 16.6221 9.76795C15.8277 10.8895 14.4756 12 11.9987 12C9.52179 12 8.1689 10.8895 7.37449 9.76795C6.58009 8.64644 6.39402 7.53594 6.39402 7.53594C6.3629 7.34179 6.19532 7.19908 5.99871 7.19923H2.39871ZM11.9987 14.8008C13.7613 14.8008 15.1987 16.2359 15.1987 17.9984C15.1987 19.761 13.7613 21.1992 11.9987 21.1992C10.2361 21.1992 8.79714 19.761 8.79714 17.9984C8.79714 16.2359 10.2361 14.8008 11.9987 14.8008Z" fill="#FF7010"/>
</svg>
