<svg width="24" height="24" viewBox="0 0 24 24" fill="none" xmlns="http://www.w3.org/2000/svg">
<g clip-path="url(#clip0_177_12564)">
<mask id="mask0_177_12564" style="mask-type:alpha" maskUnits="userSpaceOnUse" x="0" y="0" width="13" height="24">
<rect width="12.3" height="24" fill="#C4C4C4"/>
</mask>
<g mask="url(#mask0_177_12564)">
<path d="M10.0049 21.6335C9.81679 21.6335 9.62753 21.609 9.4412 21.559C8.81307 21.3907 8.29804 20.9543 8.02821 20.3618C7.8035 19.868 7.28876 19.5721 6.75116 19.6237C6.10194 19.685 5.46854 19.4579 5.00887 18.9976C4.54891 18.5372 4.32128 17.9016 4.38368 17.2537C4.39426 17.1435 4.38687 17.0353 4.36976 16.9295L1.8454 18.3884C3.89702 21.644 7.46498 23.8483 11.55 24V21.0792C11.4499 21.1173 11.3526 21.165 11.2626 21.2292C10.8902 21.4952 10.4511 21.6335 10.0049 21.6335Z" fill="#FF7010"/>
<path d="M9.67415 3.31107C9.30647 3.40975 9.0053 3.66502 8.84739 4.01179C8.4636 4.85531 7.58147 5.36263 6.66506 5.27304C6.28567 5.23654 5.91448 5.36982 5.64553 5.63931C5.37629 5.90866 5.24299 6.28064 5.27961 6.65981C5.3088 6.96316 5.26804 7.25963 5.17773 7.53735L11.55 11.2199V3.85457C11.2646 3.794 10.9877 3.68111 10.74 3.50418C10.4303 3.28277 10.0415 3.21283 9.67415 3.31107ZM9.80027 8.18624C9.12102 8.57877 8.25244 8.34582 7.8603 7.66594C7.46816 6.98605 7.70085 6.11668 8.3801 5.72415C9.05935 5.33162 9.92789 5.56457 10.3201 6.24444C10.7122 6.92434 10.4795 7.79371 9.80027 8.18624Z" fill="#FF7010"/>
<path d="M3.64629 15.9753C3.05449 15.7056 2.61855 15.1902 2.4501 14.5615C2.28164 13.9326 2.40176 13.268 2.77969 12.7381C3.09434 12.2966 3.09434 11.7034 2.77969 11.262C2.40176 10.732 2.28164 10.0673 2.4501 9.43848C2.61855 8.80976 3.05449 8.29438 3.64629 8.02459C3.74692 7.97871 3.83687 7.91823 3.91978 7.85053L1.39351 6.39059C0.505408 8.06617 0 9.97476 0 12C0 14.0252 0.505408 15.9338 1.39351 17.6094L3.91985 16.1494C3.8369 16.0817 3.74692 16.0212 3.64629 15.9753Z" fill="#FF7010"/>
<path d="M3.31935 14.3282C3.41778 14.6961 3.67296 14.9977 4.01954 15.1555C4.29651 15.2819 4.5326 15.4654 4.72776 15.6826L11.1001 12L4.72772 8.31741C4.5326 8.53453 4.29647 8.71804 4.01954 8.84436C3.67296 9.00227 3.41778 9.30388 3.31935 9.67176C3.22091 10.0396 3.29122 10.4286 3.51212 10.7387C4.0503 11.4931 4.0503 12.5069 3.51212 13.2614C3.29122 13.5714 3.22091 13.9604 3.31935 14.3282ZM6.18033 10.5785C6.96465 10.5785 7.60046 11.2149 7.60046 12C7.60046 12.7851 6.96465 13.4215 6.18033 13.4215C5.39598 13.4215 4.76017 12.7851 4.76017 12C4.76017 11.2149 5.39598 10.5785 6.18033 10.5785Z" fill="#FF7010"/>
<path d="M1.8454 5.61164L4.36976 7.07045C4.3869 6.96466 4.39426 6.85638 4.38368 6.74618C4.32128 6.09839 4.54891 5.46278 5.00887 5.00238C5.46884 4.54198 6.10282 4.31427 6.75145 4.3763C7.28788 4.42923 7.8038 4.13173 8.02821 3.63849C8.29804 3.04583 8.81307 2.60948 9.4412 2.44101C10.0696 2.27254 10.7332 2.39262 11.2626 2.77077C11.3526 2.83502 11.4499 2.88273 11.55 2.92078V0C7.46498 0.151737 3.89702 2.35604 1.8454 5.61164Z" fill="#FF7010"/>
<path d="M5.27961 17.34C5.24299 17.7193 5.37629 18.0913 5.64553 18.3607C5.91448 18.63 6.28889 18.7623 6.66477 18.7269C7.58938 18.6372 8.46389 19.1451 8.84739 19.9882C9.0053 20.3348 9.30647 20.5902 9.67415 20.6889C10.0412 20.7875 10.4303 20.7172 10.74 20.4958C10.9877 20.3189 11.2646 20.206 11.55 20.1454V12.7801L5.17773 16.4626C5.26804 16.7403 5.3088 17.0367 5.27961 17.34ZM7.8603 16.334C8.25244 15.6542 9.12102 15.4212 9.80027 15.8138C10.4795 16.2063 10.7122 17.0757 10.3201 17.7555C9.92789 18.4354 9.05935 18.6684 8.3801 18.2758C7.70085 17.8833 7.46816 17.0139 7.8603 16.334Z" fill="#FF7010"/>
</g>
<path d="M22.438 19.696C21.9055 18.672 21.8475 17.469 22.2805 16.3955C22.751 15.227 23 13.8795 23 12.5C23 10.1415 22.342 8.6935 21.705 7.293C21.1355 6.04 20.601 4.8425 20.517 2.9965C20.785 2.987 21 2.77 21 2.5C21 2.224 20.7765 2 20.5 2V0.5C20.5 0.224 20.2765 0 20 0H16C15.7235 0 15.5 0.224 15.5 0.5V2C15.2235 2 15 2.224 15 2.5C15 2.77 15.215 2.987 15.483 2.9965C15.399 4.8425 14.8645 6.0405 14.295 7.293C13.6585 8.6935 13 10.1415 13 12.5C13 13.8795 13.249 15.227 13.7195 16.396C14.152 17.47 14.0945 18.673 13.562 19.6965C13.1945 20.4025 13 21.199 13 22C13 22.562 13.0975 23.1225 13.29 23.6665C13.3605 23.8665 13.5495 24 13.761 24H22.238C22.45 24 22.6385 23.8665 22.709 23.667C22.9025 23.1235 23 22.5625 23 22C23 21.199 22.806 20.4025 22.438 19.696C22.438 19.6965 22.438 19.6965 22.438 19.696ZM19.5105 3C19.525 3.356 19.56 3.6835 19.603 4H16.3975C16.4405 3.6835 16.4755 3.356 16.49 3H19.5105ZM21.349 9C21.472 9.318 21.583 9.649 21.6785 10H14.3215C14.417 9.649 14.528 9.318 14.651 9H21.349ZM21.6805 15C21.5905 15.345 21.4875 15.6815 21.3605 16H14.64C14.513 15.6815 14.41 15.345 14.32 15H21.6805Z" fill="#FF7010"/>
</g>
<defs>
<clipPath id="clip0_177_12564">
<rect width="24" height="24" fill="white"/>
</clipPath>
</defs>
</svg>
