<svg width="24" height="24" viewBox="0 0 24 24" fill="none" xmlns="http://www.w3.org/2000/svg">
<g clip-path="url(#clip0_177_12570)">
<path d="M13.2518 11.8441C12.9177 11.5095 12.468 11.3221 11.9996 11.3221C11.5312 11.3221 11.0815 11.5095 10.7474 11.8441C10.7474 11.8441 9.76425 12.846 9.48407 13.0714L10.3443 24H13.6622L14.5225 13.079C14.3602 12.9888 13.2518 11.8441 13.2518 11.8441Z" fill="#FF7010"/>
<path d="M7.03124 11.7314C6.71264 11.4136 6.28911 11.2284 5.8436 11.2122C5.39808 11.196 4.96268 11.3499 4.62265 11.6437L2.90222 13.1165L4.55874 22.4621C4.63485 22.8917 4.85675 23.2804 5.18563 23.5602C5.5145 23.84 5.92942 23.993 6.35781 23.9925H9.36118L8.50589 13.1341C8.31172 13.0589 7.03124 11.7314 7.03124 11.7314Z" fill="#FF7010"/>
<path d="M11.6026 2.0101C11.7295 2.06141 11.8643 2.0894 12.0008 2.09276C12.1716 2.09699 12.3405 2.05579 12.4909 1.97321C12.6414 1.89064 12.7681 1.76954 12.8586 1.62185C12.971 1.45158 13.0309 1.25096 13.0306 1.04574C13.03 0.886249 12.9938 0.728988 12.9247 0.585902C12.8555 0.442816 12.7553 0.317669 12.6316 0.219968C12.5079 0.122268 12.364 0.0545834 12.2108 0.0220571C12.0576 -0.0104693 11.8992 -0.00698213 11.7475 0.0322539C11.5958 0.0714898 11.4549 0.145443 11.3354 0.248494C11.216 0.351545 11.1212 0.480984 11.0582 0.626978C10.9952 0.772972 10.9656 0.931681 10.9718 1.09105C10.978 1.25041 11.0198 1.40625 11.0939 1.54671C11.2091 1.75377 11.3878 1.91657 11.6026 2.0101Z" fill="#FF7010"/>
<path d="M17.9314 6.38354L17.6512 6.31591L17.5824 6.03036C17.1424 4.27698 15.5768 2.85173 13.5492 2.36579C13.3654 2.60327 13.1291 2.7931 12.8595 2.91977C12.59 3.04645 12.2949 3.10639 11.9984 3.0947C11.175 3.0947 10.4942 2.40587 10.4549 2.35828C8.4297 2.84421 6.86412 4.25443 6.42664 6.01783L6.36028 6.31591L6.07764 6.39105C4.89408 6.70564 3.87366 7.47019 3.22597 8.52764C2.57828 9.5851 2.3525 10.8552 2.59501 12.077L3.98855 10.8822C4.51511 10.4279 5.18895 10.19 5.87842 10.2151C6.56788 10.2401 7.22342 10.5262 7.71695 11.0175L8.94583 12.2298L10.0715 11.1202C10.3239 10.8625 10.6245 10.6592 10.9555 10.5224C11.2865 10.3856 11.6412 10.318 11.9984 10.3236C12.7239 10.3284 13.4192 10.6203 13.9375 11.1377L15.0386 12.2348L16.2945 11.0049C16.7886 10.5186 17.4423 10.2364 18.1289 10.2133C18.8155 10.1902 19.486 10.4276 20.0106 10.8797L21.4017 12.077C21.6486 10.8556 21.4263 9.58422 20.7806 8.52492C20.135 7.46562 19.1151 6.69916 17.9314 6.38354Z" fill="#FF7010"/>
<path d="M16.9753 11.7163C16.9753 11.7163 15.653 13.0539 15.5006 13.114L14.6429 23.9925H17.6512C18.0796 23.993 18.4945 23.84 18.8234 23.5602C19.1522 23.2804 19.3741 22.8917 19.4502 22.462L20.2736 17.8181L21.092 13.1165L19.3716 11.6362C19.033 11.3454 18.6008 11.1928 18.1583 11.2076C17.7159 11.2224 17.2944 11.4036 16.9753 11.7163Z" fill="#FF7010"/>
</g>
<defs>
<clipPath id="clip0_177_12570">
<rect width="24" height="24" fill="white"/>
</clipPath>
</defs>
</svg>
