<svg width="24" height="24" viewBox="0 0 24 24" fill="none" xmlns="http://www.w3.org/2000/svg">
<path d="M14.5944 14.5364C11.4027 14.5364 8.39458 15.0059 5.89554 15.8941C5.27865 16.1133 4.63648 16.2246 3.98702 16.2245C3.18611 16.2245 2.41004 16.0537 1.70169 15.7391C2.28354 17.9025 4.26536 19.5 6.61438 19.5H18.2332C20.6063 19.5 22.6048 17.8696 23.1635 15.6723C22.9372 15.6716 22.7121 15.6402 22.4944 15.5786C20.0848 14.8968 17.353 14.5364 14.5944 14.5364Z" fill="#FF7010"/>
<path d="M7.53093 13.6893C8.52777 13.4467 9.56998 13.2583 10.6403 13.1253C8.55365 10.8448 8.35926 7.0059 10.2628 4.5C8.73011 4.54715 7.23382 4.7977 5.84064 5.23078C5.12682 5.91458 4.62026 6.79534 4.39474 7.76356C3.78508 10.1687 5.20751 12.8388 7.53093 13.6893Z" fill="#FF7010"/>
<path d="M5.3279 14.3415C3.24127 12.7807 2.15468 10.0826 2.782 7.38947C2.86115 7.04969 2.96784 6.71856 3.09738 6.39767C2.54445 6.70628 2.02244 7.04958 1.53812 7.42615C-1.4682 9.74991 0.243616 14.5813 3.98704 14.5722C4.43255 14.5722 4.88525 14.4973 5.3279 14.3415Z" fill="#FF7010"/>
<path d="M19.4592 6.91954C18.7295 7.27838 18.141 7.86727 17.7836 8.60499C17.1825 9.84525 17.3329 11.2871 18.1324 12.3653C18.2561 12.5319 18.7103 13.033 18.7525 13.1468C20.1952 13.3305 21.6074 13.6102 22.9462 13.9891C23.2244 14.0678 23.5239 13.9959 23.7358 13.7993C23.9477 13.6027 24.0414 13.31 23.9829 13.0272C23.4771 10.5821 21.8179 8.44422 19.4592 6.91954Z" fill="#FF7010"/>
<path d="M12.8922 12.9286C14.0947 12.8664 15.3147 12.8709 16.5285 12.9414C15.6104 11.4311 15.4933 9.53572 16.2929 7.88563C16.6527 7.14317 17.1739 6.50487 17.8124 6.00911C16.2085 5.25597 14.3837 4.75343 12.4393 4.56958C9.80771 6.73581 10.0551 11.0769 12.8922 12.9286Z" fill="#FF7010"/>
</svg>
