<svg width="24" height="24" viewBox="0 0 24 24" fill="none" xmlns="http://www.w3.org/2000/svg">
<g clip-path="url(#clip0_158_5622)">
<path d="M20.9487 14.0517C20.6738 10.4724 19.0073 8.22938 17.5371 6.25004C16.1758 4.4176 15 2.8352 15 0.500917C15 0.313417 14.895 0.142042 14.7285 0.0561205C14.5615 -0.0303169 14.3608 -0.0161607 14.209 0.094183C12.001 1.67415 10.1587 4.33707 9.51515 6.87788C9.06839 8.6468 9.00928 10.6354 9.00098 11.9488C6.96192 11.5133 6.50001 8.46324 6.49514 8.43001C6.47217 8.2718 6.37551 8.13413 6.23489 8.05894C6.09281 7.98474 5.9258 7.97935 5.78175 8.05065C5.67483 8.1024 3.15722 9.38162 3.01073 14.4892C3.00047 14.6591 3 14.8295 3 14.9999C3 19.962 7.03758 23.9993 12 23.9993C12.0068 23.9998 12.0142 24.0007 12.02 23.9993C12.022 23.9993 12.0239 23.9993 12.0263 23.9993C16.9766 23.9851 21 19.9532 21 14.9999C21 14.7504 20.9487 14.0517 20.9487 14.0517ZM12 22.9994C10.3457 22.9994 9 21.5659 9 19.8038C9 19.7438 8.99953 19.6832 9.00389 19.609C9.0239 18.8659 9.16504 18.3586 9.31983 18.0212C9.60989 18.6442 10.1284 19.2169 10.9707 19.2169C11.2471 19.2169 11.4707 18.9933 11.4707 18.717C11.4707 18.0051 11.4854 17.1839 11.6626 16.4427C11.8204 15.7855 12.1973 15.0863 12.6749 14.5258C12.8872 15.2533 13.3013 15.8421 13.7056 16.4168C14.2843 17.239 14.8824 18.0891 14.9874 19.5387C14.9937 19.6246 15.0001 19.711 15.0001 19.8038C15 21.5658 13.6543 22.9994 12 22.9994Z" fill="#E23535"/>
</g>
<defs>
<clipPath id="clip0_158_5622">
<rect width="24" height="24" fill="white"/>
</clipPath>
</defs>
</svg>
