<svg width="24" height="24" viewBox="0 0 24 24" fill="none" xmlns="http://www.w3.org/2000/svg">
<g clip-path="url(#clip0_177_12504)">
<path d="M19.6163 17.2538C19.6787 17.9016 19.4511 18.5372 18.9911 18.9976C18.5311 19.458 17.8972 19.6856 17.2485 19.6237C16.7103 19.5716 16.1962 19.8681 15.9718 20.3615C15.702 20.9542 15.1869 21.3905 14.5588 21.559C13.9301 21.7273 13.2665 21.6074 12.7374 21.2292C12.6474 21.165 12.55 21.1173 12.45 21.0792V24C16.535 23.8483 20.103 21.6439 22.1546 18.3883L19.6302 16.9295C19.6131 17.0353 19.6057 17.1436 19.6163 17.2538Z" fill="#FF7010"/>
<path d="M10.0049 21.6335C9.8168 21.6335 9.62754 21.609 9.44122 21.559C8.81309 21.3907 8.29805 20.9543 8.02823 20.3618C7.80352 19.868 7.28877 19.5721 6.75118 19.6237C6.10196 19.685 5.46856 19.4579 5.00889 18.9976C4.54893 18.5372 4.32129 17.9016 4.38369 17.2537C4.39428 17.1435 4.38688 17.0353 4.36978 16.9295L1.84541 18.3884C3.89704 21.644 7.46499 23.8483 11.55 24V21.0792C11.45 21.1173 11.3526 21.165 11.2626 21.2292C10.8902 21.4952 10.4511 21.6335 10.0049 21.6335Z" fill="#FF7010"/>
<path d="M9.67412 3.31107C9.30644 3.40975 9.00527 3.66502 8.84736 4.01179C8.46357 4.85531 7.58144 5.36263 6.66503 5.27304C6.28564 5.23654 5.91445 5.36982 5.6455 5.63931C5.37626 5.90866 5.24296 6.28064 5.27958 6.65981C5.30877 6.96316 5.26801 7.25963 5.1777 7.53735L11.55 11.2199V3.85457C11.2646 3.794 10.9877 3.68111 10.7399 3.50418C10.4303 3.28277 10.0415 3.21283 9.67412 3.31107ZM9.80024 8.18624C9.12099 8.57877 8.25241 8.34582 7.86027 7.66594C7.46813 6.98605 7.70082 6.11668 8.38007 5.72415C9.05932 5.33162 9.92786 5.56457 10.32 6.24444C10.7122 6.92434 10.4794 7.79371 9.80024 8.18624Z" fill="#FF7010"/>
<path d="M3.64629 15.9753C3.05449 15.7056 2.61855 15.1902 2.4501 14.5615C2.28164 13.9326 2.40176 13.268 2.77969 12.7381C3.09434 12.2966 3.09434 11.7034 2.77969 11.262C2.40176 10.732 2.28164 10.0673 2.4501 9.43848C2.61855 8.80976 3.05449 8.29438 3.64629 8.02459C3.74692 7.97871 3.83687 7.91823 3.91978 7.85053L1.39351 6.39059C0.505408 8.06617 0 9.97476 0 12C0 14.0252 0.505408 15.9338 1.39351 17.6094L3.91985 16.1494C3.8369 16.0817 3.74692 16.0212 3.64629 15.9753Z" fill="#FF7010"/>
<path d="M14.5588 2.44101C15.1869 2.60933 15.702 3.04569 15.9718 3.63819C16.1962 4.13202 16.7103 4.42849 17.2488 4.3763C17.896 4.31398 18.5314 4.54213 18.9911 5.00238C19.4511 5.46278 19.6787 6.09839 19.6163 6.74632C19.6057 6.85647 19.6131 6.96472 19.6302 7.07047L22.1546 5.61164C20.103 2.35604 16.535 0.151737 12.45 0V2.92078C12.55 2.88273 12.6474 2.83502 12.7374 2.77077C13.2665 2.39262 13.9301 2.27225 14.5588 2.44101Z" fill="#FF7010"/>
<path d="M3.31935 14.3282C3.41778 14.6961 3.67296 14.9977 4.01954 15.1555C4.29651 15.2819 4.5326 15.4654 4.72776 15.6826L11.1001 12L4.72772 8.31741C4.5326 8.53453 4.29647 8.71804 4.01954 8.84436C3.67296 9.00227 3.41778 9.30388 3.31935 9.67176C3.22091 10.0396 3.29122 10.4286 3.51212 10.7387C4.0503 11.4931 4.0503 12.5069 3.51212 13.2614C3.29122 13.5714 3.22091 13.9604 3.31935 14.3282ZM6.18033 10.5785C6.96465 10.5785 7.60046 11.2149 7.60046 12C7.60046 12.7851 6.96465 13.4215 6.18033 13.4215C5.39598 13.4215 4.76017 12.7851 4.76017 12C4.76017 11.2149 5.39598 10.5785 6.18033 10.5785Z" fill="#FF7010"/>
<path d="M1.84541 5.61164L4.36978 7.07045C4.38692 6.96466 4.39428 6.85638 4.38369 6.74618C4.32129 6.09839 4.54893 5.46278 5.00889 5.00238C5.46885 4.54198 6.10284 4.31427 6.75147 4.3763C7.28789 4.42923 7.80381 4.13173 8.02823 3.63849C8.29805 3.04583 8.81309 2.60948 9.44122 2.44101C10.0696 2.27254 10.7332 2.39262 11.2626 2.77077C11.3526 2.83502 11.45 2.88273 11.55 2.92078V0C7.46499 0.151737 3.89704 2.35604 1.84541 5.61164Z" fill="#FF7010"/>
<path d="M22.6065 6.39059L20.0802 7.85055C20.1631 7.91829 20.2531 7.97882 20.3537 8.02473C20.9455 8.29438 21.3815 8.80976 21.5499 9.43848C21.7184 10.0673 21.5983 10.732 21.2203 11.2619C20.9057 11.7034 20.9057 12.2966 21.2203 12.738C21.5983 13.268 21.7184 13.9326 21.5499 14.5615C21.3815 15.1902 20.9455 15.7056 20.3537 15.9754C20.2531 16.0213 20.1632 16.0818 20.0802 16.1495L22.6065 17.6094C23.4946 15.9338 24 14.0252 24 12C24 9.97476 23.4946 8.06617 22.6065 6.39059Z" fill="#FF7010"/>
<path d="M5.27958 17.34C5.24296 17.7193 5.37626 18.0913 5.6455 18.3607C5.91445 18.63 6.28886 18.7623 6.66474 18.7269C7.58935 18.6372 8.46386 19.1451 8.84736 19.9882C9.00527 20.3348 9.30644 20.5902 9.67412 20.6889C10.0412 20.7875 10.4303 20.7172 10.7399 20.4958C10.9877 20.3189 11.2646 20.206 11.55 20.1454V12.7801L5.1777 16.4626C5.26801 16.7403 5.30877 17.0367 5.27958 17.34ZM7.86027 16.334C8.25241 15.6542 9.12099 15.4212 9.80024 15.8138C10.4794 16.2063 10.7122 17.0757 10.32 17.7555C9.92786 18.4354 9.05932 18.6684 8.38007 18.2758C7.70082 17.8833 7.46813 17.0139 7.86027 16.334Z" fill="#FF7010"/>
<path d="M14.3259 20.6889C14.6936 20.5902 14.9947 20.335 15.1526 19.9882C15.5364 19.1448 16.4186 18.6388 17.335 18.7269C17.7132 18.762 18.0855 18.6299 18.3545 18.3607C18.6237 18.0913 18.757 17.7193 18.7204 17.3402C18.6912 17.0368 18.732 16.7404 18.8223 16.4626L12.45 12.7801V20.1453C12.7354 20.2059 13.0123 20.3189 13.2601 20.4958C13.57 20.7174 13.9591 20.7876 14.3259 20.6889ZM14.1998 15.8138C14.879 15.4212 15.7476 15.6542 16.1397 16.334C16.5319 17.0139 16.2992 17.8833 15.6199 18.2758C14.9407 18.6684 14.0721 18.4354 13.68 17.7555C13.2878 17.0757 13.5205 16.2063 14.1998 15.8138Z" fill="#FF7010"/>
<path d="M20.6807 9.67177C20.5822 9.30389 20.327 9.00229 19.9805 8.84452C19.7035 8.71815 19.4674 8.53459 19.2723 8.31744L12.8999 12L19.2723 15.6826C19.4674 15.4655 19.7035 15.282 19.9805 15.1556C20.327 14.9977 20.5822 14.6961 20.6807 14.3282C20.7791 13.9604 20.7088 13.5714 20.4879 13.2613C19.9497 12.5069 19.9497 11.4931 20.4879 10.7386C20.7088 10.4286 20.7791 10.0396 20.6807 9.67177ZM17.8197 13.4215C17.0354 13.4215 16.3995 12.7851 16.3995 12C16.3995 11.2149 17.0354 10.5785 17.8197 10.5785C18.604 10.5785 19.2398 11.2149 19.2398 12C19.2398 12.7851 18.604 13.4215 17.8197 13.4215Z" fill="#FF7010"/>
<path d="M18.7204 6.65996C18.757 6.28065 18.6237 5.90866 18.3545 5.63931C18.0855 5.36997 17.7108 5.23683 17.3353 5.27305C16.4109 5.36176 15.5361 4.85502 15.1526 4.01179C14.9947 3.66517 14.6936 3.40975 14.3259 3.31108C13.9588 3.21269 13.57 3.28278 13.2601 3.50418C13.0123 3.68112 12.7354 3.794 12.45 3.85457V11.2199L18.8223 7.53738C18.732 7.25969 18.6912 6.96325 18.7204 6.65996ZM16.1397 7.66595C15.7476 8.34582 14.879 8.57877 14.1998 8.18624C13.5205 7.79371 13.2878 6.92434 13.68 6.24445C14.0721 5.56457 14.9407 5.33162 15.6199 5.72415C16.2992 6.11668 16.5319 6.98605 16.1397 7.66595Z" fill="#FF7010"/>
</g>
<defs>
<clipPath id="clip0_177_12504">
<rect width="24" height="24" fill="white"/>
</clipPath>
</defs>
</svg>
