<svg width="24" height="24" viewBox="0 0 24 24" fill="none" xmlns="http://www.w3.org/2000/svg">
<path d="M12 0C5.38305 0 0 5.38328 0 12C0 18.6167 5.38305 24 12 24C18.6167 24 24 18.6167 24 12C24 5.38328 18.6167 0 12 0ZM21.7158 6.04429L20.2434 6.89435C20.1514 6.79822 20.0575 6.70415 19.9641 6.61191C19.7755 6.42606 19.5975 6.25028 19.4466 6.06145C19.2947 5.87103 19.1619 5.65725 19.0214 5.43112C18.7733 5.03172 18.5165 4.61859 18.1317 4.3112C17.7486 4.00542 17.2894 3.84657 16.8454 3.69322C16.5927 3.60579 16.3542 3.52362 16.1334 3.41696C15.9189 3.31328 15.7099 3.18007 15.4888 3.03885C15.0897 2.78457 14.677 2.52158 14.1883 2.41035C13.7194 2.30414 13.2408 2.35976 12.7773 2.41401C12.6132 2.43323 12.4557 2.44468 12.3001 2.45223V0.607679C16.2792 0.711133 19.7572 2.86101 21.7158 6.04429ZM20.3214 7.99275C20.4885 8.33882 20.5329 8.74966 20.5801 9.18545C20.6096 9.4569 20.6398 9.73797 20.7025 10.0131C20.7627 10.2779 20.8554 10.5377 20.9451 10.7892C21.0934 11.2053 21.2337 11.5985 21.2337 12C21.2337 12.4012 21.0937 12.7942 20.9454 13.2106C20.8554 13.4619 20.7627 13.7221 20.7025 13.9869C20.64 14.262 20.6096 14.5431 20.5801 14.8148C20.5329 15.2501 20.4885 15.6614 20.3214 16.0072C20.2653 16.1235 20.1921 16.2316 20.1129 16.3373L12.6001 12L20.1129 7.66248C20.1921 7.76822 20.2653 7.87648 20.3214 7.99275ZM3.67857 16.0072C3.51149 15.6612 3.46709 15.2501 3.41971 14.8145C3.39041 14.5429 3.35997 14.262 3.29749 13.9869C3.23729 13.7221 3.1446 13.4621 3.05487 13.2108C2.90633 12.7944 2.76603 12.4012 2.76603 12C2.76603 11.5985 2.90633 11.2058 3.05465 10.7894C3.14437 10.5381 3.23729 10.2779 3.29726 10.0131C3.35997 9.73797 3.39041 9.45667 3.41971 9.18522C3.46709 8.74966 3.51149 8.33836 3.67857 7.99275C3.73465 7.87648 3.80766 7.76822 3.88709 7.66248L11.3999 12L3.88709 16.3373C3.80766 16.2316 3.73465 16.1233 3.67857 16.0072ZM11.6999 11.4802L4.29243 7.2038C4.34691 7.14887 4.40138 7.09417 4.45769 7.03855C4.65017 6.84835 4.8493 6.65174 5.02211 6.43568C5.19628 6.21755 5.3446 5.9786 5.48834 5.74743C5.71974 5.37481 5.93855 5.02302 6.24273 4.77995C6.54508 4.53871 6.93624 4.40367 7.35074 4.26039C7.60846 4.17136 7.87488 4.07889 8.1271 3.95712C8.37384 3.8381 8.60776 3.6891 8.83389 3.54491C9.20628 3.30756 9.55761 3.08348 9.94442 2.99559C10.0898 2.96241 10.2415 2.94982 10.3981 2.94982C10.6386 2.94982 10.8913 2.97957 11.1529 3.01001C11.3317 3.03084 11.515 3.04869 11.6999 3.06105V11.4802ZM11.6999 12.5196V20.9389C11.515 20.9513 11.3317 20.9689 11.1529 20.99C10.7208 21.0401 10.3127 21.0882 9.94442 21.0044C9.55761 20.9165 9.20582 20.6922 8.83366 20.4551C8.60753 20.3109 8.37384 20.1617 8.1271 20.0429C7.87465 19.9209 7.60846 19.8289 7.35074 19.7398C6.93624 19.5966 6.54485 19.4613 6.2425 19.2198C5.93855 18.977 5.71974 18.6247 5.48811 18.2521C5.3446 18.0209 5.19606 17.782 5.02211 17.5641C4.8493 17.3476 4.64995 17.151 4.45723 16.9608C4.40115 16.9054 4.34691 16.8509 4.29243 16.7962L11.6999 12.5196ZM12.3001 12.5196L19.7073 16.7962C19.6529 16.8511 19.5984 16.9058 19.5423 16.9615C19.3498 17.1514 19.1505 17.348 18.9779 17.5643C18.8037 17.7822 18.6554 18.0214 18.5117 18.2526C18.2803 18.6252 18.0615 18.977 17.7573 19.2198C17.4549 19.4613 17.0635 19.5963 16.6493 19.7396C16.3915 19.8286 16.1251 19.9209 15.8727 20.0429C15.6262 20.1617 15.392 20.3109 15.1659 20.4551C14.7937 20.6922 14.4424 20.9165 14.0556 21.0044C13.6864 21.0882 13.2785 21.0401 12.8471 20.99C12.6683 20.9689 12.4848 20.9513 12.3001 20.9389V12.5196ZM12.3001 11.4802V3.06105C12.4848 3.04869 12.6683 3.03084 12.8471 3.01001C13.279 2.95966 13.6869 2.91159 14.0554 2.99559C14.4424 3.08348 14.794 3.30756 15.1661 3.54491C15.3925 3.6891 15.6262 3.8381 15.8727 3.95712C16.1251 4.07889 16.3915 4.1709 16.6493 4.25993C17.0635 4.40321 17.4549 4.53871 17.7573 4.77995C18.0615 5.02302 18.2803 5.37504 18.5117 5.74766C18.6554 5.97883 18.8039 6.21801 18.9779 6.4359C19.1507 6.65243 19.3498 6.84903 19.5428 7.03923C19.5988 7.09439 19.6531 7.1491 19.7073 7.2038L12.3001 11.4802ZM11.6999 0.607679V2.45223C11.5443 2.44468 11.3866 2.43323 11.2225 2.41401C10.7595 2.35976 10.2804 2.30414 9.81144 2.41035C9.32301 2.52158 8.91056 2.78434 8.5114 3.03885C8.29007 3.17984 8.08133 3.31328 7.86641 3.41696C7.64554 3.52362 7.40705 3.60579 7.15459 3.69322C6.71056 3.84657 6.25143 4.00542 5.86828 4.3112C5.48353 4.61836 5.22673 5.03149 4.97862 5.43112C4.83809 5.65725 4.70511 5.8708 4.55336 6.06123C4.40253 6.24982 4.22468 6.4256 4.03609 6.61168C3.94247 6.70392 3.84886 6.79822 3.75639 6.89435L2.28423 6.04429C4.24277 2.86101 7.72084 0.711133 11.6999 0.607679ZM1.98234 6.56293L3.36386 7.36058C3.28032 7.47754 3.20204 7.59908 3.13796 7.73206C2.92624 8.17105 2.87383 8.65376 2.82325 9.12045C2.79441 9.38687 2.76717 9.63863 2.71224 9.8801C2.66005 10.1101 2.5772 10.342 2.48954 10.5878C2.33047 11.0337 2.16613 11.4949 2.16613 12C2.16613 12.5051 2.33047 12.9666 2.48977 13.4124C2.57743 13.6578 2.66005 13.8901 2.71247 14.1199C2.76717 14.3609 2.79441 14.6127 2.82325 14.8793C2.87383 15.346 2.92624 15.8287 3.13796 16.2679C3.20204 16.4009 3.28032 16.5225 3.36386 16.6394L1.98234 17.4371C1.10115 15.82 0.599897 13.9675 0.599897 12C0.599897 10.0325 1.10115 8.17998 1.98234 6.56293ZM2.28423 17.9557L3.75639 17.1056C3.84863 17.2018 3.94225 17.2956 4.03586 17.3879C4.22423 17.5739 4.40253 17.7497 4.55313 17.9383C4.70511 18.1287 4.83786 18.3427 4.97862 18.5689C5.22673 18.9683 5.4833 19.3812 5.86805 19.6886C6.25143 19.9944 6.71056 20.1532 7.15459 20.3068C7.40705 20.394 7.64554 20.4764 7.86641 20.583C8.0811 20.6867 8.29007 20.8197 8.51117 20.9609C8.91034 21.2152 9.32301 21.4784 9.81167 21.5897C10.006 21.6336 10.2019 21.6496 10.3978 21.6496C10.6748 21.6496 10.9513 21.6176 11.2225 21.5858C11.3866 21.5665 11.5443 21.5553 11.6999 21.5478V23.3923C7.72084 23.2886 4.24277 21.139 2.28423 17.9557ZM12.3001 23.3923V21.5478C12.4557 21.5553 12.6132 21.5665 12.7773 21.5858C13.2405 21.64 13.7191 21.6956 14.1883 21.5897C14.677 21.4784 15.0894 21.2154 15.4884 20.9609C15.7097 20.8199 15.9187 20.6867 16.1334 20.583C16.3542 20.4764 16.5927 20.394 16.8454 20.3068C17.2894 20.1532 17.7483 19.9944 18.1317 19.6886C18.5165 19.3816 18.773 18.9685 19.0214 18.5689C19.1619 18.3427 19.2947 18.1292 19.4466 17.9388C19.5972 17.7499 19.7753 17.5742 19.9639 17.3883C20.0573 17.2958 20.1511 17.2018 20.2434 17.1056L21.7158 17.9557C19.7572 21.139 16.2792 23.2886 12.3001 23.3923ZM22.0177 17.4371L20.6359 16.6394C20.7197 16.5225 20.7977 16.4009 20.862 16.2679C21.0738 15.8287 21.1259 15.3462 21.1765 14.8796C21.2054 14.6129 21.2326 14.3614 21.2875 14.1199C21.3399 13.8899 21.4226 13.6578 21.5102 13.412C21.6693 12.9661 21.8339 12.5051 21.8339 12C21.8339 11.4949 21.6693 11.0334 21.5102 10.5876C21.4226 10.342 21.3397 10.1097 21.2875 9.8801C21.2326 9.63886 21.2054 9.38732 21.1765 9.12068C21.1259 8.65399 21.0738 8.17105 20.862 7.73206C20.7977 7.59908 20.7197 7.47754 20.6359 7.36058L22.0177 6.56293C22.8986 8.17998 23.3999 10.0325 23.3999 12C23.3999 13.9675 22.8986 15.82 22.0177 17.4371Z" fill="#FF7010"/>
<path d="M16.3947 12.9352L16.4401 13.0245C16.6694 13.4806 17.2272 13.6649 17.6833 13.4355L17.7644 13.3946C17.7621 13.6473 17.8268 13.8926 17.9864 14.0657C18.0722 14.1588 18.2336 14.2815 18.4885 14.2815C18.6021 14.2815 18.7339 14.2572 18.8861 14.1952C19.426 13.9755 19.8479 13.5582 20.0742 13.021C20.3004 12.4836 20.3038 11.8904 20.0838 11.3504C19.6297 10.236 18.3537 9.69838 17.2389 10.1527C16.825 10.3212 16.6058 10.6427 16.6518 11.0124C16.6795 11.236 16.8042 11.4415 16.9896 11.5983L16.8054 11.6912C16.5843 11.8022 16.4199 11.9929 16.3423 12.228C16.2647 12.4628 16.2835 12.7137 16.3947 12.9352ZM16.9122 12.4159C16.9395 12.3333 16.9972 12.2662 17.0752 12.2271L17.8159 11.8537C17.9331 11.7949 17.9983 11.6665 17.977 11.537C17.9555 11.4077 17.8525 11.3072 17.7225 11.2889C17.451 11.2509 17.2645 11.0774 17.2471 10.9382C17.2334 10.8272 17.3581 10.7519 17.4652 10.7082C18.2741 10.3793 19.1992 10.7686 19.5281 11.5766C19.8575 12.385 19.4679 13.3103 18.6595 13.6397C18.6169 13.6573 18.4741 13.7097 18.4277 13.6594C18.3377 13.5614 18.335 13.2348 18.4666 12.9755C18.5252 12.8601 18.5027 12.7198 18.4112 12.6281C18.3537 12.5704 18.2768 12.5399 18.1988 12.5399C18.153 12.5399 18.1068 12.5505 18.064 12.5717L17.4137 12.8993C17.2528 12.9805 17.0567 12.9153 16.9756 12.7544L16.9306 12.6649C16.8914 12.5871 16.8848 12.4985 16.9122 12.4159Z" fill="#FF7010"/>
<path d="M15.4794 4.67467C14.9022 4.59364 14.3277 4.74493 13.8633 5.09741C13.3987 5.44943 13.0991 5.96166 13.0194 6.53913C12.9588 6.98179 13.1272 7.33266 13.4706 7.47777C13.6779 7.56566 13.9183 7.56063 14.1469 7.478L14.135 7.68399C14.121 7.93096 14.2039 8.16853 14.3685 8.35347C14.533 8.53795 14.7598 8.64713 15.0064 8.66132L15.1075 8.66727C15.1254 8.66841 15.143 8.66887 15.1608 8.66887C15.6472 8.66864 16.0565 8.28755 16.0848 7.79569L16.0899 7.70505C16.3075 7.83345 16.552 7.90052 16.7825 7.84833C16.961 7.80828 17.2716 7.66225 17.3444 7.13445C17.4238 6.55653 17.2734 5.98272 16.9214 5.51809C16.5691 5.05347 16.0569 4.75363 15.4794 4.67467ZM16.7497 7.05228C16.7436 7.09806 16.7179 7.24798 16.6509 7.26285C16.5227 7.29421 16.237 7.13102 16.078 6.88749C16.0072 6.779 15.875 6.72704 15.7498 6.7616C15.6243 6.79479 15.5348 6.90488 15.5273 7.03443L15.4856 7.76136C15.4756 7.9408 15.3201 8.08042 15.1421 8.06828L15.0409 8.06256C14.9539 8.05753 14.8743 8.01885 14.8162 7.95407C14.7585 7.88907 14.7292 7.8053 14.7342 7.71833L14.7816 6.89023C14.7889 6.75931 14.7104 6.63869 14.5875 6.59269C14.5532 6.57941 14.5175 6.57323 14.482 6.57323C14.3916 6.57323 14.3035 6.61443 14.2456 6.68882C14.0769 6.90465 13.8336 6.97813 13.7042 6.92525C13.601 6.88154 13.598 6.73551 13.6138 6.62107C13.7331 5.75613 14.5342 5.15028 15.3977 5.26884C15.8164 5.32652 16.1878 5.5435 16.443 5.88041C16.6985 6.21732 16.8076 6.63366 16.7497 7.05228Z" fill="#FF7010"/>
<path d="M10.7959 5.78268C10.8506 5.60759 10.8792 5.26541 10.4583 4.93857C9.99774 4.58083 9.42531 4.42313 8.84693 4.49706C8.26855 4.56962 7.75311 4.86327 7.39559 5.32378C7.03785 5.78429 6.88084 6.35649 6.95363 6.9351C7.02664 7.51348 7.32006 8.02915 7.78057 8.38689C7.97604 8.53864 8.18226 8.61509 8.37795 8.61509C8.53565 8.61509 8.68625 8.56542 8.81901 8.46494C8.99845 8.32944 9.11426 8.11864 9.15729 7.87969L9.32987 7.99276C9.53678 8.12849 9.78351 8.17609 10.0261 8.12551C10.2683 8.07516 10.4763 7.93348 10.6121 7.7268L10.6674 7.64234C10.8032 7.43543 10.8501 7.18847 10.8 6.94632C10.7496 6.70393 10.6082 6.49588 10.4013 6.36038L10.3253 6.31048C10.5455 6.18597 10.7256 6.00722 10.7959 5.78268ZM9.46308 6.46223L10.0721 6.86186C10.1449 6.90969 10.1946 6.98294 10.2124 7.06808C10.2301 7.15345 10.2136 7.24043 10.1657 7.31298L10.1104 7.39744C10.0625 7.47045 9.98927 7.52012 9.90413 7.53774C9.81876 7.55582 9.73201 7.53935 9.659 7.49128L8.96549 7.03627C8.85585 6.96348 8.71235 6.97149 8.61072 7.05503C8.50933 7.13835 8.47385 7.27796 8.52283 7.3995C8.6256 7.65356 8.56861 7.90189 8.45692 7.98658C8.36811 8.05456 8.24017 7.9836 8.14861 7.91288C7.81468 7.65356 7.60182 7.27957 7.54894 6.86003C7.4963 6.44072 7.61006 6.02576 7.86915 5.69182C8.1287 5.35788 8.50246 5.14502 8.922 5.09215C8.98906 5.08391 9.05613 5.07956 9.12273 5.07956C9.47223 5.07956 9.80983 5.19469 10.0902 5.41258C10.1266 5.44074 10.2436 5.53801 10.2232 5.6037C10.1836 5.73027 9.90184 5.89598 9.61139 5.912C9.48207 5.9191 9.37198 6.00859 9.33811 6.13356C9.30446 6.25876 9.35482 6.39105 9.46308 6.46223Z" fill="#FF7010"/>
<path d="M7.60525 11.0648L7.55993 10.9755C7.33059 10.5196 6.77304 10.3358 6.31642 10.5645L6.23563 10.6054C6.23769 10.3525 6.17291 10.1074 6.01361 9.93434C5.88956 9.79976 5.60758 9.60384 5.11388 9.8048C4.57395 10.0245 4.15212 10.4415 3.92576 10.979C3.6994 11.5164 3.69596 12.1096 3.91592 12.6496C4.26061 13.4953 5.07863 14.0084 5.94014 14.0084C6.21388 14.0084 6.4922 13.9567 6.76091 13.8471C7.17473 13.6786 7.39422 13.3573 7.34822 12.9876C7.32029 12.764 7.19578 12.5582 7.01016 12.4017L7.19464 12.3088C7.41551 12.1977 7.57984 12.0071 7.65766 11.772C7.73503 11.537 7.71649 11.2863 7.60525 11.0648ZM7.08775 11.5839C7.06051 11.6665 7.00261 11.7336 6.92479 11.7729L6.1839 12.1463C6.06671 12.2051 6.00148 12.3332 6.023 12.4628C6.04451 12.5923 6.14751 12.6928 6.27751 12.7109C6.54874 12.7491 6.7355 12.9226 6.75267 13.0618C6.76663 13.1728 6.64189 13.2481 6.53455 13.2916C5.72614 13.6209 4.80077 13.2314 4.47164 12.4232C4.14251 11.615 4.53207 10.6894 5.34024 10.3603C5.36977 10.3482 5.44713 10.3191 5.50756 10.3191C5.53434 10.3191 5.55791 10.325 5.57233 10.3406C5.66228 10.4383 5.66503 10.7652 5.53342 11.0243C5.47483 11.1399 5.49703 11.2802 5.58858 11.3717C5.67968 11.4633 5.81975 11.4855 5.93602 11.428L6.58627 11.1005C6.74672 11.019 6.9431 11.0847 7.02412 11.2456L7.06944 11.3349C7.10858 11.4129 7.11522 11.5013 7.08775 11.5839Z" fill="#FF7010"/>
<path d="M8.52055 19.3253C8.62148 19.3393 8.72242 19.3462 8.82267 19.3462C9.29554 19.3462 9.7533 19.1933 10.1367 18.9026C10.6011 18.5503 10.9009 18.0383 10.9803 17.4609C11.0412 17.0182 10.8725 16.6671 10.5292 16.5222C10.3221 16.4343 10.0815 16.4394 9.85286 16.522L9.86476 16.316C9.87895 16.069 9.7961 15.8315 9.63153 15.6465C9.46674 15.4621 9.24015 15.3526 8.99341 15.3387L8.89225 15.3327C8.38894 15.3005 7.94445 15.6946 7.91516 16.2043L7.90989 16.295C7.692 16.1665 7.44687 16.0993 7.21753 16.1517C7.03877 16.1917 6.72818 16.3375 6.65562 16.8656C6.5762 17.4432 6.72635 18.0173 7.0786 18.4819C7.43084 18.9465 7.94285 19.2461 8.52055 19.3253ZM7.25003 16.9475C7.25644 16.9019 7.28207 16.7518 7.3489 16.7369C7.35898 16.7346 7.37019 16.7335 7.38209 16.7335C7.52217 16.7335 7.77531 16.8878 7.92179 17.1125C7.99252 17.221 8.12504 17.2725 8.25024 17.2382C8.37544 17.2052 8.46516 17.0949 8.47271 16.9656L8.51414 16.2386C8.52444 16.0592 8.68191 15.9255 8.85792 15.9315L8.95908 15.9374C9.04606 15.9425 9.12571 15.9812 9.18361 16.0459C9.24152 16.1109 9.27059 16.1947 9.26578 16.2817L9.2184 17.1095C9.21085 17.2405 9.28936 17.3613 9.41227 17.4073C9.53426 17.4538 9.67342 17.4149 9.75444 17.3112C9.9229 17.0953 10.1667 17.0214 10.2957 17.0747C10.399 17.1185 10.4017 17.2643 10.3859 17.3789C10.2669 18.2436 9.46605 18.849 8.60226 18.7312C8.1834 18.6735 7.81216 18.4563 7.55673 18.1194C7.3013 17.7824 7.19235 17.3663 7.25003 16.9475Z" fill="#FF7010"/>
<path d="M13.2041 18.2173C13.1494 18.3922 13.1206 18.7344 13.5417 19.0614C13.9283 19.3617 14.3939 19.5203 14.8761 19.5203C14.9679 19.5203 15.0604 19.5146 15.1528 19.5029C15.7314 19.4302 16.2469 19.1367 16.6044 18.676C16.9621 18.2155 17.1189 17.6433 17.0461 17.0647C16.9734 16.4865 16.6799 15.9709 16.2192 15.6131C15.8663 15.3391 15.4783 15.3096 15.181 15.5348C15.0015 15.6706 14.8855 15.8811 14.8427 16.1203L14.6701 16.0072C14.4634 15.8715 14.216 15.8241 13.9739 15.8745C13.7317 15.9248 13.5234 16.0663 13.3879 16.2732L13.3325 16.3577C13.1968 16.5643 13.1497 16.8113 13.2 17.0537C13.2501 17.2958 13.3918 17.5039 13.5985 17.6396L13.6745 17.6893C13.4543 17.8138 13.2744 17.9926 13.2041 18.2173ZM14.5367 17.5375L13.9276 17.1379C13.8551 17.0903 13.8052 17.0171 13.7876 16.9317C13.7697 16.8466 13.7864 16.7596 13.834 16.6868L13.8894 16.6026C13.9372 16.5296 14.0105 16.4797 14.0956 16.462C14.1817 16.4446 14.2682 16.4609 14.341 16.5087L15.0343 16.9637C15.1435 17.0361 15.2876 17.0281 15.389 16.945C15.4907 16.8614 15.5261 16.722 15.4769 16.6005C15.3742 16.3464 15.4312 16.0979 15.5428 16.0134C15.6323 15.9459 15.7598 16.0162 15.8514 16.0871C16.1851 16.3464 16.3982 16.7202 16.4508 17.1397C16.5037 17.5593 16.3899 17.9742 16.1306 18.3082C15.8713 18.6421 15.4973 18.8548 15.0778 18.9079C14.6591 18.9589 14.2437 18.847 13.9096 18.5874C13.8734 18.5593 13.7562 18.462 13.7768 18.3963C13.8164 18.2697 14.0982 18.104 14.3886 18.0878C14.5179 18.0807 14.628 17.9914 14.6619 17.8664C14.6955 17.7412 14.6449 17.6087 14.5367 17.5375Z" fill="#FF7010"/>
</svg>
