<svg width="18" height="16" viewBox="0 0 18 16" fill="none" xmlns="http://www.w3.org/2000/svg">
<path d="M16.6875 6.46641L2.60474 0.709923C2.01145 0.467386 1.34119 0.574079 0.855567 0.988227C0.369941 1.40244 0.166828 2.04066 0.325555 2.65378L1.57905 7.49621H7.7163C7.99871 7.49621 8.2277 7.72175 8.2277 7.99999C8.2277 8.27819 7.99874 8.50377 7.7163 8.50377H1.57905L0.325555 13.3462C0.166828 13.9593 0.369907 14.5975 0.855567 15.0117C1.34218 15.4267 2.01251 15.5321 2.60477 15.29L16.6875 9.53356C17.3287 9.27148 17.727 8.68384 17.727 7.99999C17.727 7.31613 17.3287 6.72846 16.6875 6.46641Z" fill="white"/>
</svg>
