<svg width="24" height="24" viewBox="0 0 24 24" fill="none" xmlns="http://www.w3.org/2000/svg">
<path d="M23.9855 7.8161C23.9615 5.98346 22.4681 4.5 20.6358 4.5C18.9988 4.5 17.6332 5.68436 17.3434 7.24379C16.7679 7.49926 15.7683 7.90779 15.1727 8.00724C14.4545 8.12703 13.5866 8.16307 12.5931 8.11409C10.6954 8.02055 8.80078 7.40055 7.11401 6.32063C4.99145 4.96195 3.18365 4.644 1.25226 5.2897C0.503174 5.54018 0 6.24724 0 7.04951C0 7.30942 0.140808 7.54862 0.367126 7.67302C0.625854 7.81499 0.867736 7.93773 1.10175 8.05623C2.36938 8.6986 3.06775 9.05241 3.53045 11.0022C3.87616 12.4582 4.48096 13.6786 5.32837 14.6293C5.85791 15.2236 6.48413 15.7144 7.19622 16.0959C6.7608 16.4484 6.48138 16.9884 6.48138 17.5927V18.7902C6.48138 19.1822 6.79614 19.5 7.18432 19.5H15.5581C15.9463 19.5 16.2612 19.1822 16.2612 18.7902V17.5927C16.2612 16.9912 15.9844 16.4534 15.5522 16.1007C17.3664 15.0328 18.4715 13.2164 18.7485 10.8438C18.8954 9.58627 18.772 8.48971 18.6859 7.94957C18.6896 7.92054 18.6919 7.89097 18.6919 7.86102C18.6919 6.79053 19.5639 5.91968 20.6358 5.91968C21.7075 5.91968 22.5796 6.79053 22.5796 7.86102C22.5796 7.89485 22.582 7.92868 22.5868 7.96214C22.5877 7.96916 22.6653 8.6729 22.2317 9.17829C21.8763 9.59237 21.2485 9.80236 20.3657 9.80236C19.9773 9.80236 19.6626 10.1201 19.6626 10.5122C19.6626 10.9041 19.9773 11.2219 20.3657 11.2219C21.6747 11.2219 22.6602 10.847 23.2945 10.1077C24.0725 9.20121 24.0154 8.09911 23.9855 7.8161ZM14.8134 14.8927C14.2223 15.235 13.5522 15.4576 12.8212 15.5541C10.3718 15.8772 6.08514 15.6726 4.89807 10.6714C4.28284 8.0797 3.10107 7.48078 1.73254 6.78739C1.67871 6.76021 1.62451 6.73267 1.56976 6.70476C1.60638 6.67573 1.64831 6.65263 1.69427 6.63729C3.20856 6.13115 4.60418 6.39494 6.3609 7.51959C8.25293 8.73076 10.3841 9.42655 12.5244 9.5321C13.6175 9.5859 14.5856 9.54412 15.4023 9.4077C15.9888 9.30991 16.775 9.01876 17.3705 8.77365C17.4163 9.28255 17.438 9.9715 17.3472 10.7172C17.1121 12.6499 16.2596 14.0547 14.8134 14.8927ZM8.39502 17.0901H14.3476C14.6274 17.0901 14.855 17.3156 14.855 17.5927V18.0805H7.88745V17.5927C7.88745 17.3156 8.11523 17.0901 8.39502 17.0901Z" fill="#FF7010"/>
</svg>
