<svg width="24" height="24" viewBox="0 0 24 24" fill="none" xmlns="http://www.w3.org/2000/svg">
<path d="M19.3552 18.9098C19.5463 18.9098 19.7012 18.3942 19.7012 18.2V5.79567C19.7012 5.52759 19.7932 5.26565 19.9603 5.05814L20.5845 4.28287C20.8524 3.95015 21 3.53006 21 3.10012V0.351603C21 0.22954 20.9377 0.116243 20.8354 0.0522588C20.7331 -0.0117724 20.6054 -0.0172568 20.4983 0.0376338L18.823 0.895494L17.1476 0.0376338C17.0496 -0.0125224 16.9341 -0.0125224 16.8362 0.0376338L15.1611 0.895494L13.486 0.0376338C13.388 -0.0125224 13.2726 -0.0125224 13.1745 0.0376338L11.4995 0.895494L9.82448 0.0376338C9.72654 -0.0125224 9.61094 -0.0125224 9.51301 0.0376338L7.83825 0.895494L6.16326 0.0376338C6.06532 -0.0125224 5.94977 -0.0125224 5.85179 0.0376338L4.17675 0.895494L2.50176 0.0376338C2.39446 -0.0172568 2.26691 -0.0118662 2.16459 0.0522588C2.06228 0.116243 2 0.229587 2 0.351603V3.10017C2 3.5301 2.14757 3.9502 2.4155 4.28292L3.03973 5.05818C3.20677 5.2657 3.2988 5.52764 3.2988 5.79567V18.2044C3.2988 18.4725 3.20681 18.7344 3.03973 18.9419L2.4155 19.7171C2.14757 20.0498 2 20.4699 2 20.8999V23.6484C2 23.7705 2.06228 23.8838 2.16459 23.9478C2.22004 23.9825 2.28296 24 2.34602 24C2.39926 24 2.45263 23.9875 2.50171 23.9624L4.1767 23.1045L5.85174 23.9624C5.94972 24.0126 6.06528 24.0125 6.16321 23.9624L7.8382 23.1045L9.51296 23.9624C9.61094 24.0125 9.72645 24.0125 9.82443 23.9624L11.4994 23.1045L13.1745 23.9624C13.2725 24.0125 13.388 24.0125 13.4859 23.9624L15.1611 23.1045L16.8361 23.9624C16.9341 24.0125 17.0496 24.0125 17.1475 23.9624L18.8228 23.1045L20.4981 23.9624C20.6054 24.0173 20.733 24.0118 20.8353 23.9477C20.9375 23.8838 20.9999 23.7704 20.9999 23.6484V20.8998C20.9999 20.4699 20.8523 20.0498 20.5844 19.7171L19.9601 18.9418C19.7931 18.7343 19.7011 18.4724 19.7011 18.2043C19.7011 18.0101 19.5462 17.8527 19.355 17.8527C19.1639 17.8527 19.009 18.0101 19.009 18.2043C19.009 18.6343 19.1565 19.0544 19.4245 19.3871L20.0487 20.1623C20.2158 20.3698 20.3078 20.6318 20.3078 20.8998V21.0824H2.69205V20.8998C2.69205 20.6318 2.78403 20.3698 2.95111 20.1623L3.57535 19.3871C3.84327 19.0544 3.99084 18.6343 3.99084 18.2043V15.8479H19.0092V18.2C19.0092 18.3943 19.1641 18.9098 19.3552 18.9098ZM20.3079 21.7858V23.0775L18.9786 22.3968C18.8807 22.3466 18.7652 22.3466 18.6672 22.3968L16.9919 23.2547L15.3168 22.3968C15.2678 22.3717 15.2145 22.3592 15.1611 22.3592C15.1077 22.3592 15.0544 22.3717 15.0054 22.3968L13.3302 23.2547L11.6552 22.3968C11.5573 22.3466 11.4417 22.3466 11.3437 22.3968L9.66874 23.2547L7.99398 22.3968C7.896 22.3467 7.78049 22.3466 7.68251 22.3968L6.00752 23.2547L4.33249 22.3968C4.23455 22.3467 4.11899 22.3466 4.02101 22.3968L2.69205 23.0775V21.7858H20.3079ZM2.69205 0.92254L4.02101 1.60317C4.11895 1.65332 4.2345 1.65332 4.33249 1.60317L6.00752 0.745306L7.68251 1.60317C7.78045 1.65332 7.89605 1.65332 7.99398 1.60317L9.66879 0.745306L11.3438 1.60317C11.4417 1.65332 11.5572 1.65332 11.6553 1.60317L13.3302 0.745306L15.0054 1.60317C15.1033 1.65332 15.2188 1.65332 15.3168 1.60317L16.9919 0.745306L18.6672 1.60317C18.7651 1.65332 18.8806 1.65332 18.9786 1.60317L20.3079 0.922494V2.21423H2.69205V0.92254ZM3.99084 15.1447V8.82768H8.2986C8.48972 8.82768 8.64463 8.67028 8.64463 8.47607C8.64463 8.28187 8.48972 8.12446 8.2986 8.12446H3.99084V5.79562C3.99084 5.36568 3.84327 4.94564 3.57535 4.61287L2.95107 3.8376C2.78403 3.63014 2.692 3.3682 2.692 3.10012V2.91759H20.3079V3.10012C20.3079 3.3682 20.2159 3.63014 20.0488 3.8376L19.4246 4.61287C19.1567 4.94568 19.0091 5.36573 19.0091 5.79567V8.12451H7.90532C7.71425 8.12451 7.5593 8.28192 7.5593 8.47612C7.5593 8.67032 7.7142 8.82773 7.90532 8.82773H19.0092V15.1448L3.99084 15.1447Z" fill="#FF7010"/>
</svg>
