<svg width="24" height="24" viewBox="0 0 24 24" fill="none" xmlns="http://www.w3.org/2000/svg">
<g clip-path="url(#clip0_177_12536)">
<path d="M13.9851 19.4999H19.5161C20.2947 19.5049 21.0608 19.2995 21.7371 18.9044C22.4134 18.5094 22.9758 17.9387 23.3677 17.2499C24.1238 15.9347 24.1988 14.3301 23.5824 12.9966C24.0689 12.2903 24.226 11.225 23.5191 10.2898C22.1794 8.52154 20.4713 7.08144 18.5191 6.07439C16.4946 5.039 14.2626 4.5 11.9995 4.5C9.73644 4.5 7.5044 5.039 5.47991 6.07439C3.52745 7.08132 1.81899 8.52143 0.478994 10.2898C-0.228325 11.2255 -0.0708304 12.2907 0.415715 12.9971C-0.197388 14.3238 -0.127547 15.9169 0.619145 17.2302C1.00925 17.9245 1.5723 18.5004 2.25085 18.8992C2.92939 19.2979 3.69913 19.5052 4.48151 19.4999H13.9851ZM9.76648 18.5402H4.48198C3.86403 18.5449 3.25593 18.3817 2.7197 18.0672C2.18348 17.7528 1.7383 17.2984 1.42959 16.7504C1.16535 16.291 1.00343 15.7776 0.955386 15.2467C0.907338 14.7159 0.974345 14.1807 1.15163 13.6794C1.7352 14.0201 2.4983 14.1185 3.27639 13.7005C5.96871 12.2609 8.96113 11.5091 11.9986 11.5091C15.036 11.5091 18.0285 12.2609 20.7208 13.7005C21.0441 13.879 21.4053 13.9738 21.7726 13.9764C22.1494 13.9747 22.5193 13.8723 22.8455 13.6794C23.2046 14.6693 23.1066 15.8104 22.5587 16.7638C21.91 17.8929 20.8005 18.5393 19.5152 18.5393H9.76554L9.76648 18.5402ZM20.1283 8.21832C19.4103 9.38412 18.5355 10.4406 17.5296 11.3565C16.7301 11.1191 15.9168 10.9333 15.0946 10.8004C16.1801 9.60879 16.9814 8.17618 17.4359 6.61469C17.6587 6.7145 17.8793 6.82038 18.0977 6.93234C18.8101 7.2992 19.4896 7.72952 20.1283 8.21832ZM12.2798 5.46307C11.7966 7.64948 10.5224 9.56743 8.7137 10.8311C7.67478 11.0104 6.65143 11.274 5.65334 11.6194C6.91012 10.0606 7.66638 8.14278 7.81889 6.12765C9.1693 5.68207 10.5798 5.45667 11.9986 5.45971C12.0923 5.45971 12.1861 5.46115 12.2798 5.46307ZM1.24772 12.5321C0.941165 12.1574 0.749922 11.4995 1.22053 10.8771C2.47412 9.22229 4.07258 7.87463 5.89943 6.93234C6.20817 6.7724 6.52065 6.62653 6.83689 6.49473C6.67985 7.74581 6.26393 8.94821 5.61689 10.0217C4.96984 11.0951 4.10657 12.0149 3.08468 12.7197C3.00312 12.762 2.92156 12.8047 2.84094 12.8483C2.15753 13.2149 1.55521 12.9064 1.24725 12.5307L1.24772 12.5321ZM10.4616 10.6127C11.8659 9.23991 12.8303 7.46314 13.2271 5.51729C14.3654 5.61892 15.4864 5.86919 16.5626 6.262C16.0875 7.94185 15.174 9.4573 13.9204 10.6454C13.2829 10.5814 12.6423 10.5494 11.9986 10.5494C11.4855 10.5494 10.9732 10.57 10.4616 10.6113V10.6127ZM21.1562 12.8522C20.3174 12.4023 19.4476 12.0157 18.5538 11.6953C19.4332 10.8361 20.209 9.87229 20.8647 8.82436C21.5682 9.44152 22.2088 10.1301 22.7766 10.8795C23.2454 11.5033 23.0579 12.1597 22.7495 12.5345C22.441 12.9093 21.842 13.2164 21.1562 12.8498V12.8522Z" fill="#FF7010"/>
</g>
<defs>
<clipPath id="clip0_177_12536">
<rect width="24" height="24" fill="white"/>
</clipPath>
</defs>
</svg>
